<?xml version="1.0" encoding="UTF-8" standalone="no"?>
<!-- Created with Inkscape (http://www.inkscape.org/) -->

<svg
   width="11in"
   height="8.5in"
   viewBox="0 0 1056 816"
   version="1.1"
   id="svg1"
   sodipodi:docname="Tema13.svg"
   inkscape:version="1.3.2 (091e20e, 2023-11-25, custom)"
   xmlns:inkscape="http://www.inkscape.org/namespaces/inkscape"
   xmlns:sodipodi="http://sodipodi.sourceforge.net/DTD/sodipodi-0.dtd"
   xmlns:xlink="http://www.w3.org/1999/xlink"
   xmlns="http://www.w3.org/2000/svg"
   xmlns:svg="http://www.w3.org/2000/svg">
  <sodipodi:namedview
     id="namedview1"
     pagecolor="#ffffff"
     bordercolor="#000000"
     borderopacity="0.25"
     inkscape:showpageshadow="2"
     inkscape:pageopacity="0.0"
     inkscape:pagecheckerboard="0"
     inkscape:deskcolor="#d1d1d1"
     inkscape:document-units="in"
     inkscape:zoom="0.96446078"
     inkscape:cx="404.88945"
     inkscape:cy="303.27827"
     inkscape:window-width="1920"
     inkscape:window-height="1001"
     inkscape:window-x="-9"
     inkscape:window-y="-9"
     inkscape:window-maximized="1"
     inkscape:current-layer="layer1"
     showguides="true" />
  <defs
     id="defs1">
    <linearGradient
       id="linearGradient91"
       inkscape:collect="always">
      <stop
         style="stop-color:#b1b1b1;stop-opacity:0;"
         offset="0"
         id="stop91" />
      <stop
         style="stop-color:#a2a2a2;stop-opacity:1;"
         offset="1"
         id="stop92" />
    </linearGradient>
    <linearGradient
       id="linearGradient90"
       inkscape:collect="always">
      <stop
         style="stop-color:#000000;stop-opacity:1;"
         offset="0.16080403"
         id="stop89" />
      <stop
         style="stop-color:#d2d2d2;stop-opacity:0;"
         offset="1"
         id="stop90" />
    </linearGradient>
    <linearGradient
       id="linearGradient87"
       inkscape:collect="always">
      <stop
         style="stop-color:#000000;stop-opacity:1;"
         offset="0.20351759"
         id="stop87" />
      <stop
         style="stop-color:#d2d2d2;stop-opacity:0;"
         offset="1"
         id="stop88" />
    </linearGradient>
    <linearGradient
       id="linearGradient52"
       inkscape:collect="always">
      <stop
         style="stop-color:#d2d2d2;stop-opacity:1;"
         offset="0"
         id="stop52" />
      <stop
         style="stop-color:#d2d2d2;stop-opacity:0;"
         offset="1"
         id="stop53" />
    </linearGradient>
    <linearGradient
       id="linearGradient49"
       inkscape:collect="always">
      <stop
         style="stop-color:#ffffff;stop-opacity:1;"
         offset="0"
         id="stop49" />
      <stop
         style="stop-color:#ffffff;stop-opacity:0;"
         offset="1"
         id="stop50" />
    </linearGradient>
    <linearGradient
       id="linearGradient43"
       inkscape:collect="always">
      <stop
         style="stop-color:#a60000;stop-opacity:1;"
         offset="0"
         id="stop43" />
      <stop
         style="stop-color:#ff4d4d;stop-opacity:1;"
         offset="1"
         id="stop44" />
    </linearGradient>
    <linearGradient
       id="linearGradient29"
       inkscape:collect="always">
      <stop
         style="stop-color:#ffffff;stop-opacity:1;"
         offset="0"
         id="stop29" />
      <stop
         style="stop-color:#ffffff;stop-opacity:0.55339807;"
         offset="1"
         id="stop30" />
    </linearGradient>
    <linearGradient
       id="linearGradient25"
       inkscape:collect="always">
      <stop
         style="stop-color:#000000;stop-opacity:1;"
         offset="0"
         id="stop25" />
      <stop
         style="stop-color:#232323;stop-opacity:1;"
         offset="1"
         id="stop26" />
    </linearGradient>
    <linearGradient
       id="linearGradient16"
       inkscape:collect="always">
      <stop
         style="stop-color:#00c75d;stop-opacity:1;"
         offset="0"
         id="stop16" />
      <stop
         style="stop-color:#009043;stop-opacity:1;"
         offset="1"
         id="stop17" />
    </linearGradient>
    <radialGradient
       inkscape:collect="always"
       xlink:href="#linearGradient16"
       id="radialGradient17"
       cx="527.40527"
       cy="338.78421"
       fx="527.40527"
       fy="338.78421"
       r="203.75248"
       gradientTransform="matrix(1.036033,-0.00357079,0.00244081,0.70818274,-19.379453,118.34635)"
       gradientUnits="userSpaceOnUse" />
    <radialGradient
       inkscape:collect="always"
       xlink:href="#linearGradient25"
       id="radialGradient26"
       cx="678.38269"
       cy="584.29358"
       fx="678.38269"
       fy="584.29358"
       r="194.7275"
       gradientTransform="matrix(0.60632776,-0.79521484,0.88479165,0.67462743,-249.91765,680.29373)"
       gradientUnits="userSpaceOnUse" />
    <radialGradient
       inkscape:collect="always"
       xlink:href="#linearGradient25"
       id="radialGradient27"
       gradientUnits="userSpaceOnUse"
       gradientTransform="matrix(0.58806482,-0.79521484,0.85814122,0.67462743,-221.77564,678.09424)"
       cx="678.38269"
       cy="584.29358"
       fx="678.38269"
       fy="584.29358"
       r="194.7275" />
    <radialGradient
       inkscape:collect="always"
       xlink:href="#linearGradient25"
       id="radialGradient28"
       gradientUnits="userSpaceOnUse"
       gradientTransform="matrix(0.58806482,-0.79521484,0.85814122,0.67462743,-234.23941,664.89731)"
       cx="678.38269"
       cy="584.29358"
       fx="678.38269"
       fy="584.29358"
       r="194.7275" />
    <linearGradient
       inkscape:collect="always"
       xlink:href="#linearGradient29"
       id="linearGradient30"
       x1="414.97015"
       y1="260.2728"
       x2="465.55838"
       y2="350.45181"
       gradientUnits="userSpaceOnUse" />
    <linearGradient
       inkscape:collect="always"
       xlink:href="#linearGradient43"
       id="linearGradient44"
       x1="771.76184"
       y1="482.90323"
       x2="769.09393"
       y2="346.16837"
       gradientUnits="userSpaceOnUse" />
    <linearGradient
       inkscape:collect="always"
       xlink:href="#linearGradient49"
       id="linearGradient50"
       x1="817.07666"
       y1="344.95306"
       x2="825.03729"
       y2="405.07242"
       gradientUnits="userSpaceOnUse"
       gradientTransform="matrix(1,0,0,1.0337764,0,-13.694261)" />
    <linearGradient
       inkscape:collect="always"
       xlink:href="#linearGradient49"
       id="linearGradient51"
       x1="817.07666"
       y1="344.95306"
       x2="825.03729"
       y2="405.07242"
       gradientUnits="userSpaceOnUse"
       gradientTransform="matrix(1,0,0,1.0337764,0,-13.694261)" />
    <linearGradient
       inkscape:collect="always"
       xlink:href="#linearGradient52"
       id="linearGradient53"
       x1="690.4873"
       y1="413.63788"
       x2="691.83734"
       y2="394.84497"
       gradientUnits="userSpaceOnUse" />
    <linearGradient
       inkscape:collect="always"
       xlink:href="#linearGradient52"
       id="linearGradient54"
       gradientUnits="userSpaceOnUse"
       x1="690.4873"
       y1="413.63788"
       x2="691.83734"
       y2="394.84497" />
    <linearGradient
       inkscape:collect="always"
       xlink:href="#linearGradient52"
       id="linearGradient56"
       gradientUnits="userSpaceOnUse"
       x1="690.4873"
       y1="413.63788"
       x2="691.83734"
       y2="394.84497" />
    <linearGradient
       inkscape:collect="always"
       xlink:href="#linearGradient52"
       id="linearGradient58"
       gradientUnits="userSpaceOnUse"
       x1="690.4873"
       y1="413.63788"
       x2="691.83734"
       y2="394.84497" />
    <linearGradient
       inkscape:collect="always"
       xlink:href="#linearGradient52"
       id="linearGradient72"
       gradientUnits="userSpaceOnUse"
       x1="690.4873"
       y1="413.63788"
       x2="691.83734"
       y2="394.84497" />
    <linearGradient
       inkscape:collect="always"
       xlink:href="#linearGradient52"
       id="linearGradient74"
       gradientUnits="userSpaceOnUse"
       x1="690.4873"
       y1="413.63788"
       x2="691.83734"
       y2="394.84497" />
    <linearGradient
       inkscape:collect="always"
       xlink:href="#linearGradient52"
       id="linearGradient76"
       gradientUnits="userSpaceOnUse"
       x1="690.4873"
       y1="413.63788"
       x2="691.83734"
       y2="394.84497" />
    <linearGradient
       inkscape:collect="always"
       xlink:href="#linearGradient52"
       id="linearGradient78"
       gradientUnits="userSpaceOnUse"
       x1="690.4873"
       y1="413.63788"
       x2="691.83734"
       y2="394.84497" />
    <linearGradient
       inkscape:collect="always"
       xlink:href="#linearGradient52"
       id="linearGradient80"
       gradientUnits="userSpaceOnUse"
       x1="690.4873"
       y1="413.63788"
       x2="691.83734"
       y2="394.84497" />
    <linearGradient
       inkscape:collect="always"
       xlink:href="#linearGradient52"
       id="linearGradient82"
       gradientUnits="userSpaceOnUse"
       x1="690.4873"
       y1="413.63788"
       x2="691.83734"
       y2="394.84497" />
    <linearGradient
       inkscape:collect="always"
       xlink:href="#linearGradient52"
       id="linearGradient84"
       gradientUnits="userSpaceOnUse"
       x1="690.4873"
       y1="413.63788"
       x2="691.83734"
       y2="394.84497" />
    <linearGradient
       inkscape:collect="always"
       xlink:href="#linearGradient52"
       id="linearGradient86"
       gradientUnits="userSpaceOnUse"
       x1="690.4873"
       y1="413.63788"
       x2="691.83734"
       y2="394.84497" />
    <radialGradient
       inkscape:collect="always"
       xlink:href="#linearGradient87"
       id="radialGradient88"
       cx="254.02795"
       cy="630.92249"
       fx="254.02795"
       fy="630.92249"
       r="107.83228"
       gradientTransform="matrix(1.6009615,0,0,0.36538455,139.21192,284.78451)"
       gradientUnits="userSpaceOnUse" />
    <radialGradient
       inkscape:collect="always"
       xlink:href="#linearGradient90"
       id="radialGradient89"
       gradientUnits="userSpaceOnUse"
       gradientTransform="matrix(2.0624998,0,0,0.36538455,-215.4701,254.71589)"
       cx="254.02795"
       cy="630.92249"
       fx="254.02795"
       fy="630.92249"
       r="107.83228" />
    <radialGradient
       inkscape:collect="always"
       xlink:href="#linearGradient91"
       id="radialGradient92"
       cx="429.77382"
       cy="377.41295"
       fx="429.77382"
       fy="377.41295"
       r="363.4155"
       gradientTransform="matrix(1,0,0,0.7075606,0,104.50511)"
       gradientUnits="userSpaceOnUse" />
    <linearGradient
       inkscape:collect="always"
       xlink:href="#linearGradient43"
       id="linearGradient165"
       gradientUnits="userSpaceOnUse"
       x1="771.76184"
       y1="482.90323"
       x2="769.09393"
       y2="346.16837" />
    <linearGradient
       inkscape:collect="always"
       xlink:href="#linearGradient49"
       id="linearGradient166"
       gradientUnits="userSpaceOnUse"
       gradientTransform="matrix(1,0,0,1.0337764,0,-13.694261)"
       x1="817.07666"
       y1="344.95306"
       x2="825.03729"
       y2="405.07242" />
    <linearGradient
       inkscape:collect="always"
       xlink:href="#linearGradient49"
       id="linearGradient167"
       gradientUnits="userSpaceOnUse"
       gradientTransform="matrix(1,0,0,1.0337764,0,-13.694261)"
       x1="817.07666"
       y1="344.95306"
       x2="825.03729"
       y2="405.07242" />
    <linearGradient
       inkscape:collect="always"
       xlink:href="#linearGradient52"
       id="linearGradient168"
       gradientUnits="userSpaceOnUse"
       x1="690.4873"
       y1="413.63788"
       x2="691.83734"
       y2="394.84497" />
    <linearGradient
       inkscape:collect="always"
       xlink:href="#linearGradient52"
       id="linearGradient169"
       gradientUnits="userSpaceOnUse"
       x1="690.4873"
       y1="413.63788"
       x2="691.83734"
       y2="394.84497" />
    <linearGradient
       inkscape:collect="always"
       xlink:href="#linearGradient52"
       id="linearGradient170"
       gradientUnits="userSpaceOnUse"
       x1="690.4873"
       y1="413.63788"
       x2="691.83734"
       y2="394.84497" />
    <linearGradient
       inkscape:collect="always"
       xlink:href="#linearGradient52"
       id="linearGradient171"
       gradientUnits="userSpaceOnUse"
       x1="690.4873"
       y1="413.63788"
       x2="691.83734"
       y2="394.84497" />
    <linearGradient
       inkscape:collect="always"
       xlink:href="#linearGradient52"
       id="linearGradient172"
       gradientUnits="userSpaceOnUse"
       x1="690.4873"
       y1="413.63788"
       x2="691.83734"
       y2="394.84497" />
    <linearGradient
       inkscape:collect="always"
       xlink:href="#linearGradient52"
       id="linearGradient173"
       gradientUnits="userSpaceOnUse"
       x1="690.4873"
       y1="413.63788"
       x2="691.83734"
       y2="394.84497" />
    <linearGradient
       inkscape:collect="always"
       xlink:href="#linearGradient52"
       id="linearGradient174"
       gradientUnits="userSpaceOnUse"
       x1="690.4873"
       y1="413.63788"
       x2="691.83734"
       y2="394.84497" />
    <linearGradient
       inkscape:collect="always"
       xlink:href="#linearGradient52"
       id="linearGradient175"
       gradientUnits="userSpaceOnUse"
       x1="690.4873"
       y1="413.63788"
       x2="691.83734"
       y2="394.84497" />
    <linearGradient
       inkscape:collect="always"
       xlink:href="#linearGradient52"
       id="linearGradient176"
       gradientUnits="userSpaceOnUse"
       x1="690.4873"
       y1="413.63788"
       x2="691.83734"
       y2="394.84497" />
    <linearGradient
       inkscape:collect="always"
       xlink:href="#linearGradient52"
       id="linearGradient177"
       gradientUnits="userSpaceOnUse"
       x1="690.4873"
       y1="413.63788"
       x2="691.83734"
       y2="394.84497" />
    <linearGradient
       inkscape:collect="always"
       xlink:href="#linearGradient52"
       id="linearGradient178"
       gradientUnits="userSpaceOnUse"
       x1="690.4873"
       y1="413.63788"
       x2="691.83734"
       y2="394.84497" />
    <linearGradient
       inkscape:collect="always"
       xlink:href="#linearGradient52"
       id="linearGradient179"
       gradientUnits="userSpaceOnUse"
       x1="690.4873"
       y1="413.63788"
       x2="691.83734"
       y2="394.84497" />
    <radialGradient
       inkscape:collect="always"
       xlink:href="#linearGradient16"
       id="radialGradient179"
       gradientUnits="userSpaceOnUse"
       gradientTransform="matrix(1.036033,-0.00357079,0.00244081,0.70818274,-19.379453,118.34635)"
       cx="527.40527"
       cy="338.78421"
       fx="527.40527"
       fy="338.78421"
       r="203.75248" />
    <radialGradient
       inkscape:collect="always"
       xlink:href="#linearGradient25"
       id="radialGradient180"
       gradientUnits="userSpaceOnUse"
       gradientTransform="matrix(0.60632776,-0.79521484,0.88479165,0.67462743,-249.91765,680.29373)"
       cx="678.38269"
       cy="584.29358"
       fx="678.38269"
       fy="584.29358"
       r="194.7275" />
    <radialGradient
       inkscape:collect="always"
       xlink:href="#linearGradient25"
       id="radialGradient181"
       gradientUnits="userSpaceOnUse"
       gradientTransform="matrix(0.58806482,-0.79521484,0.85814122,0.67462743,-221.77564,678.09424)"
       cx="678.38269"
       cy="584.29358"
       fx="678.38269"
       fy="584.29358"
       r="194.7275" />
    <radialGradient
       inkscape:collect="always"
       xlink:href="#linearGradient25"
       id="radialGradient182"
       gradientUnits="userSpaceOnUse"
       gradientTransform="matrix(0.58806482,-0.79521484,0.85814122,0.67462743,-234.23941,664.89731)"
       cx="678.38269"
       cy="584.29358"
       fx="678.38269"
       fy="584.29358"
       r="194.7275" />
    <linearGradient
       inkscape:collect="always"
       xlink:href="#linearGradient29"
       id="linearGradient182"
       gradientUnits="userSpaceOnUse"
       x1="414.97015"
       y1="260.2728"
       x2="465.55838"
       y2="350.45181" />
    <clipPath
       clipPathUnits="userSpaceOnUse"
       id="clipPath298">
      <rect
         style="opacity:1;fill:url(#radialGradient298);fill-opacity:1;stroke-width:0.876798"
         id="rect298"
         width="726.83099"
         height="395.36282"
         x="66.358322"
         y="201.55061" />
    </clipPath>
    <radialGradient
       inkscape:collect="always"
       xlink:href="#linearGradient91"
       id="radialGradient298"
       gradientUnits="userSpaceOnUse"
       gradientTransform="matrix(1,0,0,0.54395428,0,193.93664)"
       cx="429.77382"
       cy="377.41295"
       fx="429.77382"
       fy="377.41295"
       r="363.4155" />
  </defs>
  <g
     inkscape:label="Layer 1"
     inkscape:groupmode="layer"
     id="layer1">
    <rect
       style="opacity:1;fill:url(#radialGradient92);fill-opacity:1"
       id="rect90"
       width="726.83099"
       height="514.27698"
       x="66.358322"
       y="114.40916" />
    <g
       id="g182"
       transform="matrix(1,0,0,1.3007722,0,-147.76228)"
       clip-path="url(#clipPath298)"
       style="opacity:0.44412607">
      <g
         id="g100"
         transform="matrix(1,0,0,-0.56467636,-219.97937,810.43506)">
        <path
           id="path93"
           d="M 733.05206,418.3685 C 731.07018,550.54245 641.83421,573.37739 485.76363,563.0089 373.4882,555.54993 325.5705,500.52807 325.5705,396.59468 c 0,-103.93339 84.99676,-158.11944 197.51969,-158.11944 112.52292,0 211.73489,61.64881 209.96187,179.89326 z"
           sodipodi:nodetypes="sssss"
           style="display:inline;fill:url(#radialGradient179);fill-opacity:1" />
        <path
           id="path94"
           style="fill:#00843e;fill-opacity:1"
           d="m 516.9668,238.56836 c -8.5854,0.15244 -17.01604,0.59471 -25.23633,1.38672 l 0.95508,8.58789 c 0,0 -5.13282,13.92841 -5.13282,19.06055 0,5.13212 1.4668,16.13085 1.4668,16.13086 0,0 -7.33203,19.06149 -7.33203,21.99414 0,2.93263 2.93359,21.99609 2.93359,21.99609 0,0 4.39844,18.32806 4.39844,24.19336 0,5.86528 7.5e-4,14.66353 -0.73242,19.0625 -0.73316,4.39896 -0.73438,19.79513 -0.73438,23.46094 0,3.6658 2.19922,10.99847 2.19922,18.33007 v 24.19336 c 0,4.39897 -2.19947,16.13008 0,22.72852 2.19949,6.59845 8.79883,16.86322 8.79883,22.72852 0,5.86528 3.66602,20.52729 3.66602,26.39257 0,5.8653 3.66601,25.66211 3.66601,25.66211 l 2.93164,28.5918 1.65625,1.27344 c 4.34944,0.19131 8.55239,0.29434 12.78516,0.41992 2.28232,-2.74362 4.65708,-5.81263 5.35547,-7.5586 1.46632,-3.6658 2.93137,-10.26454 5.13086,-19.0625 2.19949,-8.79793 3.66675,-44.72112 2.93359,-52.05273 -0.73316,-7.3316 -6.59961,-32.26093 -6.59961,-38.85937 0,-6.59847 -2.19895,-16.86223 -4.39844,-25.66016 -2.19947,-8.79794 -8.79882,-26.39327 -8.79882,-31.52539 v -35.92578 c 0,0 3.66649,-12.46237 5.13281,-16.86133 1.46633,-4.39897 1.4668,-6.59971 1.4668,-21.99609 0,-15.3964 -1.46755,-13.19668 -0.73438,-23.46094 0.73316,-10.26426 1.46728,-19.06144 2.93359,-27.85938 1.46632,-8.79793 5.86578,-6.59854 1.4668,-15.39648 -1.88008,-3.76017 -6.03378,-7.20776 -10.17773,-9.97461 z m 38.34765,1.65039 -4.70898,3.92383 v 14.66406 c 0,5.13214 -6.59886,12.4631 -7.33203,16.12891 -0.73316,3.6658 0.73365,14.66305 1.46679,17.5957 0.73316,2.93265 7.33204,16.13107 7.33204,19.79687 0,3.66581 -2.19969,13.19647 -3.66602,19.79493 -1.46632,6.59845 -0.73316,18.32955 0,22.72851 0.73317,4.39898 0.73364,16.1296 1.4668,21.26172 0.73316,5.13214 2.93164,20.52823 2.93164,29.32617 0,8.79793 1.46606,23.46115 2.19922,27.12696 0.73316,3.66579 5.86523,21.26172 5.86523,21.26171 0,0 -6.59766,19.0624 -6.59766,30.79297 0,11.73058 3.66602,27.8596 3.66602,31.52539 0,3.66581 2.93164,25.66016 2.93164,25.66016 l 9.00586,22.85938 c 9.9309,-0.43359 19.44556,-1.15402 28.52734,-2.19336 0.76356,-1.38518 1.32422,-2.71065 1.32422,-3.80274 0,-5.86528 2.93333,-24.19499 5.13282,-32.25976 2.19947,-8.06479 4.3987,-15.39611 2.19921,-29.32618 -2.19947,-13.93006 -5.13281,-20.52896 -5.13281,-28.59375 0,-8.06477 -1.46484,-15.39495 -1.46484,-22.72656 0,-7.33161 -2.93333,-2.20031 -5.13282,-14.66406 -2.19946,-12.46374 -10.99657,-35.92425 -12.46289,-43.25586 -1.46631,-7.33161 9.53125,-17.59665 9.53125,-20.5293 0,-2.93263 -2.20097,-5.13227 1.46485,-9.53125 3.66579,-4.39895 13.92969,-8.06391 13.92969,-12.46289 0,-4.39895 -0.73243,-19.0625 -0.73243,-19.0625 l 6.59961,-16.86328 c 0,0 -19.06223,-16.12984 -21.26172,-19.0625 -2.19947,-2.93265 -10.26515,-11.73089 -8.79882,-19.0625 1.4663,-7.33161 1.46679,-7.33123 1.46679,-13.92969 0,-3.3318 0.36872,-7.9691 0.0781,-12.21875 -9.70712,-2.16186 -19.67274,-3.79578 -29.82813,-4.90234 z m -93.25781,4.16602 c -8.10435,1.66528 -15.94072,3.69969 -23.50781,6.06445 l -4.51563,11.28906 c 0,0 0.73243,18.32906 0.73242,21.26172 v 19.79688 27.12695 c 0,2.93265 -3.66601,10.99603 -3.66601,16.86133 v 23.46289 l 2.19922,28.59179 -3.66602,18.33008 c 0,0 7.33203,32.99118 7.33203,35.92383 v 27.86133 c 0,2.93265 4.39965,21.99409 5.13282,27.85937 0.73316,5.8653 4.39769,27.86032 5.13086,30.79297 0.53915,2.15667 1.87839,13.3905 4.0039,19.20703 6.85474,1.24628 14.005,2.26727 21.47266,3.05078 l 5.3164,-7.59375 10.99805,-17.5957 -5.86523,-20.5293 c 0,0 -9.53125,-16.12884 -9.53125,-21.99414 0,-5.86529 -1.4668,-40.32421 -1.4668,-40.32422 0,0 -2.93164,-20.5283 -2.93164,-23.46093 0,-2.93265 2.93164,-22.72852 2.93164,-22.72852 l -2.19922,-25.66015 c 0,0 -5.86451,-13.19695 -6.59765,-21.26172 -0.73317,-8.06479 -1.46707,-24.19453 0.73242,-30.79297 2.19947,-6.59847 3.66601,-22.72852 3.66601,-22.72852 l 4.39844,-19.0625 c 0,0 -0.73337,-12.46331 -3.66602,-19.79492 -2.42012,-6.05033 -5.31295,-18.88162 -6.43359,-23.95312 z m 150.91211,8.625 c 0.0853,5.65088 1.42188,21.19335 1.42187,21.19335 l 2.93165,29.32618 c 0,0 -1.46633,17.5959 0,21.26172 1.4663,3.66579 1.46679,20.5285 1.46679,27.12695 0,6.59845 1.4668,22.72851 1.4668,22.72851 0,0 0.73242,10.99674 0.73242,21.99414 0,10.99742 2.19949,10.99751 0,15.39649 -2.19949,4.39896 -3.66601,14.66448 -3.66601,21.99609 0,7.33162 2.20117,15.39616 2.20117,23.46094 0,8.06477 1.46484,13.19552 1.46484,16.86133 0,3.66581 -1.46605,19.06346 -2.19922,21.99609 -0.73316,2.93266 -0.73242,13.19673 -0.73242,17.59571 0,4.39896 4.3977,30.06001 5.13086,34.45898 0.68064,4.08386 2.58163,5.72757 3.44336,9.44922 1.58818,-0.34789 3.19932,-0.67726 4.75391,-1.05274 2.15927,-2.40966 4.26757,-5.46484 4.26757,-5.46484 0,0 8.06446,2.9337 8.06446,-8.79687 0,-11.73058 -1.46559,-21.26134 -0.73242,-35.19141 0.73314,-13.93008 5.13085,-33.72599 5.13085,-43.99023 0,-10.26426 1.46733,-12.4642 -2.93164,-28.59376 -4.39896,-16.12954 -2.93359,-34.45817 -2.93359,-41.05664 0,-6.59844 0.73418,-12.46494 -2.93164,-27.86132 -3.66581,-15.3964 1.4668,-38.12347 1.4668,-45.45508 V 283 c 0,-5.86529 -2.20044,-12.46358 -2.9336,-17.5957 -0.0941,-0.65886 -0.36644,-1.44411 -0.7539,-2.30274 -7.74064,-3.78627 -15.78453,-7.17413 -24.12891,-10.09179 z m -202.70508,8.53711 c -10.14642,4.91118 -19.5763,10.58521 -28.16211,17.04101 l -4.52344,5.87891 5.86524,26.39453 -3.66406,19.0625 c 0,0 3.66406,9.5312 3.66406,15.39648 0,5.86531 -1.46484,15.39596 -1.46484,19.79492 v 16.12891 c 0,2.93265 1.46484,22.72852 1.46484,22.72852 v 13.92968 c 0,2.93265 -2.93211,8.79877 -4.39844,14.66407 -1.46632,5.86528 2.9336,27.12695 2.9336,27.12695 l 4.39843,30.05859 c 0,0 5.86524,16.8639 5.86524,27.86133 v 20.85156 c 8.03203,4.618 16.87127,8.57497 26.47265,11.93164 l 1.38672,-16.65429 c 0,0 3.66723,-17.59566 4.40039,-23.46094 0.73316,-5.86528 2.19922,-25.66016 2.19922,-25.66016 0,0 -10.99804,-19.79586 -10.99805,-22.72851 0,-2.93265 -7.33203,-27.1279 -7.33203,-30.06055 0,-2.93265 -1.46607,-21.26065 -2.19921,-30.05859 -0.73316,-8.79793 -0.73195,-35.19162 0.73437,-38.85742 1.46633,-3.66581 -0.73437,-58.6543 -0.73437,-58.6543 0,0 2.19969,-4.39839 3.66601,-10.26367 1.46633,-5.8653 2.93359,-24.92774 2.93359,-24.92774 z m 249.7461,14.71093 c -0.31575,0.88194 -0.64485,1.84048 -0.89649,2.34375 -1.46633,2.93265 -2.19922,19.79634 -2.19922,24.19532 0,4.39896 -12.46484,38.85742 -12.46484,38.85742 v 13.19726 c 0,3.66582 5.86523,27.85938 5.86523,27.85938 0,0 8.79809,39.59047 9.53125,50.58789 0.73316,10.99742 1.46633,18.32949 0,28.59375 -1.46632,10.26426 -2.93164,21.99414 -2.93164,21.99414 0,0 5.86524,37.39157 5.86524,40.32422 0,2.23381 4.62424,12.59133 7.25976,18.39453 5.83972,-3.08764 11.29074,-6.54211 16.34571,-10.38281 0.18643,-9.14219 0.58789,-28.234 0.58789,-32.93946 0,-5.86529 -3.66407,-29.32516 -3.66407,-32.25781 0,-2.93265 -0.73316,-23.46188 0,-26.39453 0.73316,-2.93265 3.66407,-24.92842 3.66407,-30.06055 0,-5.13212 -6.59813,-31.52608 -8.06446,-36.6582 -1.46632,-5.13214 0,-21.99408 0,-27.85938 0,-5.86528 8.06446,-19.79492 8.06446,-19.79492 l 4.1875,-23.55859 c -9.17719,-9.97384 -19.66413,-18.76566 -31.15039,-26.44141 z m -293.0625,15.4668 c -7.27351,7.19803 -13.7123,15.10303 -19.20313,23.73047 0.39934,1.35726 2.64791,9.20057 1.97461,15.93359 -0.73316,7.33161 -7.33203,24.19531 -7.33203,24.19531 0,0 0.73437,9.5314 0.73437,19.0625 v 30.79297 c 0,0 -1.46631,13.92937 0,21.99414 1.46632,8.06479 5.86524,23.4619 5.86524,26.39453 v 19.0625 l -1.84375,20.875 c 5.25649,9.10802 11.53555,17.30405 18.83203,24.62891 l 0.60742,-1.51562 c 0,0 2.93137,2.93301 5.13086,-13.92969 2.19948,-16.86271 4.40039,-14.66301 4.40039,-23.46094 0,-8.79793 -5.13281,-23.46041 -5.13281,-27.85937 v -10.99805 c 0,-12.46375 -1.46632,-10.99725 0,-17.5957 1.46633,-6.59846 8.06376,13.93017 2.93164,-11.73047 -5.13214,-25.66066 -5.86376,-20.52918 -7.33008,-32.25977 -1.46633,-11.73058 -3.66627,-16.12953 -1.4668,-27.12695 2.19949,-10.99742 3.66602,-10.2645 3.66602,-24.92774 0,-14.17075 1.99849,-21.55478 -1.83398,-35.26562 z m 337.19921,27.17383 -6.17578,19.08984 c 0,0 -3.66601,30.05954 -3.66601,32.99219 0,2.93265 7.33203,27.12657 7.33203,41.05664 0,13.93007 2.93359,40.32422 2.93359,40.32422 0,0 -1.46705,22.72871 0.73242,26.39453 1.41256,2.35426 6.91138,10.4158 11.41993,16.99219 5.54087,-10.884 9.68672,-23.31332 12.41796,-37.41993 -1.39636,-12.48013 -3.18673,-26.55471 -4.04296,-28.69531 -1.46632,-3.6658 -5.86402,-39.5908 -5.13086,-42.52343 0.73316,-2.93266 1.46484,-22.72771 1.46484,-29.32618 0,-3.19553 -0.69512,-6.73449 -1.4043,-10.20117 -4.32845,-10.27823 -9.66998,-19.83258 -15.88086,-28.68359 z" />
        <path
           id="path95"
           style="fill:#004c23;fill-opacity:1"
           d="m 518.17773,238.54883 c -6.40185,0.091 -12.71133,0.35505 -18.91601,0.80078 -1.85012,6.27396 -4.37695,15.21372 -4.37695,18.72461 0,5.13212 -4.39844,33.72476 -4.39844,43.25586 0,9.53109 2.93211,35.19256 4.39844,41.79101 1.4663,6.59846 3.66553,13.92864 2.19921,22.72657 -1.46631,8.79794 -2.19995,26.39468 -1.46679,35.92578 0.73316,9.5311 2.93406,32.99214 4.40039,38.85742 1.46632,5.86528 -1.4666,25.66011 2.19922,31.52539 3.66579,5.86528 6.59812,18.32875 8.06445,29.32617 1.46632,10.99743 4.39964,24.92931 5.13281,38.85938 0.66821,12.69603 2.95374,22.48649 3.39063,24.3125 0.80067,0.028 1.55889,0.031 2.35547,0.0566 0.63812,-4.09253 1.75318,-9.22236 3.78515,-15.57227 5.86531,-18.32903 6.59793,-38.12477 4.39844,-61.58594 -2.19949,-23.46115 -1.46627,-17.59446 -5.86523,-43.98828 -4.39898,-26.3938 -8.79883,-37.39146 -8.79883,-52.05468 0,-14.66323 -1.46485,-32.25912 -1.46485,-48.38868 0,-16.12955 2.19922,-41.058 2.19922,-51.32226 0,-10.26426 7.3311,-36.65762 4.39844,-46.92188 -0.55631,-1.94709 -1.09848,-4.15172 -1.63477,-6.32812 z m -20.12304,0.89453 c -0.0346,0.003 -0.069,0.005 -0.10352,0.008 l -0.13281,0.29297 z m 60.15039,1.13476 -2.4668,16.0293 c 0,0 -5.86672,19.79587 -4.40039,22.72852 1.46632,2.93263 8.79883,24.92762 8.79883,36.6582 0,11.73059 0.73242,37.39053 0.73242,49.12109 0,11.73059 -3.66581,30.05996 0,40.32422 3.66582,10.26425 8.06566,31.52581 8.79883,38.85743 0.73316,7.33161 0.73242,28.59364 0.73242,40.32421 0,11.73058 -0.73242,40.32442 -0.73242,43.99024 0,3.66579 6.59812,27.12569 8.06445,32.25781 0.26724,0.93535 0.7878,2.14895 1.28516,3.33203 3.44828,-0.2189 6.84131,-0.47761 10.18164,-0.77344 2.32241,-7.39706 4.66211,-15.27818 4.66211,-17.2207 0,-3.66582 1.4668,-2.93363 1.46679,-24.19531 V 480.2207 c 0,-16.12954 4.39849,-17.59505 -1.46679,-33.72461 -5.8653,-16.12954 -7.33176,-25.66004 -9.53125,-37.39062 -2.19949,-11.73059 -2.19922,-5.86675 -2.19922,-25.66211 0,-19.79535 -4.39897,-28.59343 0,-36.6582 4.39896,-8.06479 24.19494,-16.12874 10.99805,-33.72461 -13.19692,-17.59589 -19.79614,-24.19425 -20.5293,-32.99219 -0.73317,-8.79793 2.19922,-18.33003 2.19922,-24.19531 0,-2.34669 -0.1523,-6.99272 -0.29297,-12.90625 -5.36339,-0.96611 -10.811,-1.73352 -16.30078,-2.38868 z m -100.96875,4.8711 c -4.42497,0.99855 -8.78968,2.07852 -13.05078,3.29101 -3.01239,6.64898 -7.22071,16.42316 -7.22071,21.06446 0,6.59844 8.06446,32.2585 8.06446,37.39062 0,5.13214 -4.39918,32.99315 -3.66602,35.92578 0.73317,2.93265 0.73438,19.06118 0.73438,30.0586 0,10.99742 -0.001,19.06313 -0.73438,30.06054 -0.73316,10.99742 -0.73242,28.5918 -0.73242,28.5918 0,0 2.20016,9.5314 5.13281,19.0625 2.93265,9.5311 2.93164,22.72874 2.93164,26.39453 0,3.66582 -3.66459,18.32976 0.73438,26.39453 4.39896,8.06479 5.86449,19.06244 6.59765,24.92774 0.73316,5.86528 0.73243,10.99603 0.73243,16.86133 0,4.41044 2.41958,11.10719 3.85937,14.875 3.41647,0.49805 6.90316,0.94221 10.46094,1.33398 0.60809,-4.05608 1.2533,-7.93764 1.81054,-9.60937 1.46633,-4.39898 8.79816,-10.26472 3.66602,-28.59375 -5.13212,-18.32905 -8.06492,-13.93027 -9.53125,-30.79297 -1.46632,-16.86272 -2.93359,-7.3326 -2.93359,-24.19532 v -32.99218 c 0,-19.79536 2.93337,-9.52982 -0.73242,-32.25782 -3.66582,-22.72799 -8.0652,-27.86121 -7.33204,-39.59179 0.73316,-11.73059 -0.73389,-29.32539 0.73243,-35.92383 1.46631,-6.59845 6.5996,-20.52945 6.59961,-30.06055 0,-9.53109 -8.0652,-27.12636 -7.33204,-37.39062 0.30253,-4.23537 0.66488,-8.23028 1.20899,-14.82422 z m 162.52344,10.0957 1.96289,24.52344 v 20.5293 c 0,10.99743 2.19847,37.38982 2.93164,43.98828 0.73316,6.59845 0,19.79676 0,31.52734 0,11.73059 4.39843,44.72212 4.39843,49.1211 v 29.32617 43.25781 c 0,14.66322 -1.4663,17.59553 0,35.19141 0.64449,7.73379 1.41502,15.22702 2.09375,21.46679 0.0738,-5.34822 0.46705,-12.54457 1.57227,-22.93359 3.66581,-34.45859 4.40039,-27.12757 4.40039,-38.125 v -41.05664 c 0,-22.72801 0.73317,-25.66026 0,-41.05664 -0.73316,-15.3964 -4.40039,-25.66194 -4.40039,-43.25781 0,-17.59589 -1.46484,-35.19055 -1.46484,-47.6543 v -27.86133 c 0,-12.75021 2.86669,-21.58298 2.4082,-31.06836 -4.53267,-2.1165 -9.16537,-4.09195 -13.90234,-5.91797 z m 11.38671,298.93164 c -0.0137,0.99401 0.0476,1.50852 0.0566,2.36524 0.0683,-0.0164 0.14075,-0.0284 0.20899,-0.0449 -0.1346,-1.20277 -0.1193,-0.97512 -0.26563,-2.32032 z M 403.48242,264.98242 c -5.36147,2.87526 -10.48338,5.99751 -15.3789,9.33399 -2.04322,3.7071 -3.92579,7.40523 -3.92579,8.68359 v 18.33008 c 0,10.99742 1.46606,34.45914 2.19922,43.99023 0.73317,9.5311 0.73242,27.12731 0.73243,40.32422 0,13.19691 -1.46485,39.59079 -1.46485,42.52344 0,2.93265 -4.39896,13.19668 0,23.46094 4.39898,10.26426 5.86348,18.32795 9.5293,35.92382 3.66579,17.59589 3.66601,24.92889 3.66601,31.52735 0,6.21952 0.0226,19.28136 0.63672,23.2539 3.43702,1.72157 7.03011,3.3155 10.72461,4.83008 0.83281,-3.33426 1.75176,-8.62945 2.57031,-17.08789 2.19949,-22.728 4.39723,-20.52893 3.66407,-34.45898 -0.73317,-13.93007 4.40023,-1.46463 -5.13086,-24.92578 -9.5311,-23.46117 -12.46485,-13.19853 -12.46485,-35.19336 v -28.5918 c 0,-15.39638 0.73438,-10.99882 0.73438,-31.52734 V 345.32031 283 c 0,-4.56008 3.13407,-15.38026 3.9082,-18.01758 z m 261.4961,14.68946 v 28.25585 c 0,0 -5.13255,15.39664 -7.33204,24.92774 -2.19947,9.53109 -4.39794,21.99624 -2.93164,31.52734 1.46633,9.53109 -0.73442,-8.06553 5.13086,27.85938 5.8653,35.9249 8.06641,39.59 8.06641,49.12109 0,9.5311 -10e-4,29.32638 -0.73438,32.99219 -0.73314,3.66581 -2.93311,21.99575 -1.46679,30.06055 1.46633,8.06477 5.86523,31.52539 5.86523,31.52539 0,0 0.56566,2.972 1,5.29297 1.92952,-1.07634 3.80577,-2.20453 5.64649,-3.36524 0.78587,-2.0812 1.41992,-4.71639 1.41992,-9.25781 0,-10.99742 -1.46606,-18.33018 -2.19922,-33.72656 -0.73316,-15.3964 -0.73438,-13.19742 -0.73438,-22.72852 0,-9.5311 2.19922,-43.25607 2.19922,-46.92187 0,-3.66581 1.46659,-5.86507 -2.19922,-23.46094 -3.6658,-17.59587 -7.33203,-13.19731 -7.33203,-34.45899 0,-21.26168 8.79883,-40.3239 8.79883,-48.38867 0,-5.82262 5.27113,-13.59845 5.21094,-24.07031 -5.7418,-5.45151 -11.89209,-10.51342 -18.4082,-15.18359 z m -302.1504,16.26953 c -3.162,3.40271 -6.15553,6.94529 -8.95117,10.64453 -0.63678,4.06511 -1.22656,8.11668 -1.22656,9.4082 v 38.12305 27.12695 c 0,3.66582 -2.19922,32.25977 -2.19922,32.25977 0,0 7.33203,24.19376 7.33203,31.52539 0,7.33161 -1.46679,16.1298 -1.46679,24.92773 v 33.72656 l 4.27343,8.9336 c 1.23499,1.41943 2.48914,2.82345 3.79297,4.18359 v -18.98242 -35.92578 -31.52539 -24.19531 c 0,-11.73059 1.46632,-13.93 0,-32.99219 -1.46633,-19.06219 -5.13281,-27.12711 -5.13281,-36.65821 0,-9.5311 -2.93265,-21.2614 0,-29.32617 1.18381,-3.25547 2.44489,-7.38917 3.57812,-11.2539 z m 343.20704,25.71875 v 35.39062 c 0,5.8653 -5.13214,20.52734 0,47.6543 5.13212,27.12697 7.33203,35.19358 7.33203,38.85937 0,3.66582 -1.46584,25.65935 1.46679,32.25782 1.46459,3.29531 3.47851,8.6026 5.12696,13.08984 0.66862,-1.54768 1.29387,-3.14547 1.91211,-4.75 l -2.64063,-33.26758 -6.59765,-34.45898 0.73242,-31.52539 c 0,0 -0.73242,-27.86079 -0.73242,-32.25977 v -20.31641 c -2.04854,-3.67545 -4.27945,-7.21022 -6.59961,-10.67382 z" />
        <path
           id="path96"
           style="display:inline;opacity:0.330128;fill:#ffffff;fill-opacity:1"
           d="m 523.08984,235.54196 c -112.52281,0 -197.51953,54.18585 -197.51953,158.11914 0,63.88451 18.14184,109.25954 58.16797,136.49805 C 353.41135,502.34734 339.5,460.59997 339.5,404.65915 c 0,-103.93329 84.99671,-158.11914 197.51953,-158.11914 53.24393,0 103.48799,13.82522 141.48242,40.89648 -39.14125,-34.33205 -95.37576,-51.89453 -155.41211,-51.89453 z" />
        <path
           id="path97"
           style="display:inline;opacity:0.224359;fill:url(#radialGradient180);fill-opacity:1"
           d="m 692.23633,303.93555 c 12.8931,23.809 20.04088,51.94844 19.55469,84.37304 -1.98188,132.17382 -91.21864,155.00911 -247.28907,144.64063 -55.22009,-3.66852 -94.8404,-18.86965 -120.88086,-45.70899 23.02076,45.7599 68.86785,70.90156 142.14258,75.76954 156.07043,10.36848 245.30719,-12.46681 247.28906,-144.64063 0.70967,-47.32863 -14.79081,-85.56326 -40.8164,-114.43359 z" />
        <path
           id="path98"
           style="display:inline;opacity:0.224359;fill:url(#radialGradient181);fill-opacity:1;stroke-width:0.984825"
           d="m 692.00013,301.73606 c 12.50475,23.809 19.43723,51.94844 18.96569,84.37304 -1.92219,132.17382 -88.47108,155.00911 -239.84058,144.64063 -53.55683,-3.66852 -91.98376,-18.86965 -117.23986,-45.70899 22.32736,45.7599 66.79351,70.90156 137.86116,75.76954 151.3695,10.36848 237.9184,-12.46681 239.84057,-144.64063 0.6883,-47.32863 -14.3453,-85.56326 -39.58698,-114.43359 z" />
        <path
           id="path99"
           style="display:inline;opacity:0.224359;fill:url(#radialGradient182);fill-opacity:1;stroke-width:0.984825"
           d="m 679.53636,288.53913 c 12.50475,23.809 19.43723,51.94844 18.96569,84.37304 -1.92219,132.17382 -88.47108,155.00911 -239.84058,144.64063 -53.55683,-3.66852 -91.98376,-18.86965 -117.23986,-45.70899 22.32736,45.7599 66.79351,70.90156 137.86116,75.76954 151.3695,10.36848 237.9184,-12.46681 239.84057,-144.64063 0.6883,-47.32863 -14.3453,-85.56326 -39.58698,-114.43359 z" />
        <path
           id="path100"
           style="opacity:0.615385;fill:url(#linearGradient182);fill-opacity:1;stroke-width:1.17795"
           d="m 593.64843,267.38275 c 4.09355,22.2178 -79.95771,53.25705 -124.76623,69.64573 -45.10014,16.49534 -127.96153,42.50164 -127.9615,24.60833 3e-5,-17.89331 18.07302,-61.20516 65.18855,-94.59678 25.50007,-18.07236 183.90068,-19.40529 187.53918,0.34272 z"
           sodipodi:nodetypes="sssss" />
      </g>
      <g
         id="g131"
         transform="matrix(1,0,0,-0.56467636,-233.37948,804.21766)">
        <path
           id="path101"
           style="opacity:1;fill:#00b153;fill-opacity:1;stroke-width:1.34998"
           d="m 592.16211,344.23438 a 184.04066,168.48793 0 0 0 -0.12109,1.55468 184.04066,168.48793 0 0 0 184.04101,168.48828 184.04066,168.48793 0 0 0 184.03906,-168.48828 184.04066,168.48793 0 0 0 -0.041,-1.55468 z" />
        <path
           id="path102"
           style="opacity:1;fill:#004c23;fill-opacity:1;stroke-width:1.34998"
           d="m 592.16211,344.23438 a 184.04066,168.48793 0 0 0 -0.12109,1.55468 184.04066,168.48793 0 0 0 184.04101,168.48828 184.04066,168.48793 0 0 0 184.03906,-168.48828 184.04066,168.48793 0 0 0 -0.041,-1.55468 H 949.40625 A 175.48663,177.73423 0 0 1 775.82227,496.13281 175.48663,177.73423 0 0 1 602.35547,344.23438 Z" />
        <path
           id="path103"
           style="opacity:1;fill:#00a34c;fill-opacity:1;stroke-width:1.34998"
           d="m 592.16211,344.23438 a 184.04066,168.48793 0 0 0 -0.12109,1.55468 184.04066,168.48793 0 0 0 0.27539,3.85156 l 5.57812,5.57618 5.49805,12.83008 -5.86524,3.30078 c 0,0 -0.35739,-5.77815 -2.89453,1.12109 a 184.04066,168.48793 0 0 0 4.61914,19.46289 c 0.1422,-0.023 0.3537,-0.0325 0.47461,-0.0566 1.83291,-0.36658 4.76597,-5.86395 7.33203,-0.36523 2.56607,5.49871 6.59901,6.23101 6.23243,12.46289 -0.36658,6.23187 -10e-4,8.43184 -1.83399,12.09765 -0.31803,0.63607 -0.85357,1.11445 -1.44726,1.54883 a 184.04066,168.48793 0 0 0 11.27539,18.70117 c 2.22991,1.0414 2.50631,2.00495 4.83593,-2.65429 3.66582,-7.33162 6.96472,-11.73175 8.06446,-6.59961 1.09975,5.13213 4.39904,6.59887 4.76562,17.96289 0.30038,9.3118 0.79052,8.19111 0.37305,12.98632 a 184.04066,168.48793 0 0 0 13.60156,12.51758 c 0.12748,-0.0849 0.18848,-0.11979 0.32227,-0.20898 5.49871,-3.66581 2.93171,-6.96524 7.69726,-3.66602 4.76555,3.29923 9.16602,-2.56518 9.16602,8.79883 0,3.66587 -0.44545,5.64731 -0.91797,7.15235 a 184.04066,168.48793 0 0 0 14.59375,8.92968 c 3.76724,-5.71222 0.19415,-10.25305 9.41797,-4.71875 10.99743,6.59846 9.53119,-1.8329 15.39648,10.63086 1.04016,2.21033 1.60246,3.96926 2.00586,5.54102 a 184.04066,168.48793 0 0 0 18.76172,5.71289 c 0.40514,-0.44202 0.77927,-0.80639 1.22852,-1.35547 6.59846,-8.06478 -0.36766,-15.39654 8.79687,-9.53125 9.16452,5.86529 8.43097,-2.93312 13.92969,9.16406 1.08819,2.39402 1.67341,4.32767 2.08203,6.05469 a 184.04066,168.48793 0 0 0 20.67578,1.24023 184.04066,168.48793 0 0 0 3.80469,-0.0762 c 2.66847,-4.99853 3.1519,-6.14018 5.33008,-8.31836 3.29923,-3.29922 3.30011,-7.33169 8.79882,-4.76562 5.49872,2.56606 1.46539,-2.93319 7.69727,4.39843 1.80127,2.11915 2.57483,4.40932 3.09766,6.65626 a 184.04066,168.48793 0 0 0 25.01367,-5.26758 c -0.30333,-9.82552 -1.46555,-10.07156 0.48242,-12.01953 2.19948,-2.19949 2.93219,-1.83191 9.16406,-2.93165 6.23188,-1.09974 7.33298,-2.93325 10.26563,-0.36718 2.93265,2.56606 -5.86644,3.66528 4.03125,4.39844 1.68072,0.12449 3.2032,0.21051 4.88672,0.34179 A 184.04066,168.48793 0 0 0 878.66992,485.625 c -0.46989,-6.35735 -1.47585,-13.36346 -1.07422,-14.56836 0.73316,-2.19949 -0.36576,-2.56526 4.03321,-6.59766 4.39897,-4.03238 5.86409,-5.86476 9.89648,-4.39843 4.0324,1.46632 3.66669,-10e-4 8.79883,5.13086 0.9412,0.9412 1.96151,1.65875 2.99414,2.27734 a 184.04066,168.48793 0 0 0 7.73828,-7.16992 c -0.9657,-3.47085 -1.97046,-7.40076 -2.30078,-10.86914 -0.73317,-7.6982 -6.23309,-4.39898 -0.73438,-10.63086 5.49873,-6.23188 4.03254,-7.33203 9.53125,-7.33203 5.49872,0 5.13228,-0.36672 9.53125,1.09961 1.96301,0.65433 4.09746,0.9888 5.91211,1.18945 a 184.04066,168.48793 0 0 0 2.13282,-3.2168 c -2.19832,-4.04598 -6.21094,-11.64491 -6.21094,-14.46875 0,-3.66581 -1.4672,-5.13227 1.83203,-9.53125 3.29923,-4.39897 1.83366,-7.69888 9.89844,-5.13281 3.00947,0.95756 5.58357,2.10242 7.90429,3.11328 a 184.04066,168.48793 0 0 0 4.28321,-11.93555 c -1.19859,-2.82006 -2.29549,-5.6359 -2.65625,-8.04101 -1.09975,-7.33162 -4.03213,-6.96357 -2.19922,-12.0957 1.8329,-5.13214 -1.83418,-7.33204 5.13086,-7.33204 2.35848,0 4.19163,-0.0939 5.77929,-0.20507 a 184.04066,168.48793 0 0 0 0.46876,-3.92188 l -6.98047,-5.4043 1.09961,-6.96484 v -4.38476 h -4.07227 A 175.48663,177.73423 0 0 1 775.82227,496.13281 175.48663,177.73423 0 0 1 602.35547,344.23438 Z" />
        <path
           id="path104"
           style="opacity:1;fill:url(#linearGradient165);fill-opacity:1;stroke-width:1.25978"
           d="M 608.99972,344.40966 A 167.70142,161.9626 0 0 0 774.77091,482.82905 167.70142,161.9626 0 0 0 940.65408,344.40966 Z" />
        <path
           id="path105"
           style="opacity:0.567308;fill:url(#linearGradient166);fill-opacity:1;stroke-width:1.12897"
           d="m 746.16268,343.33117 a 79.548164,51.160035 0 0 0 -2.00195,10.94752 79.548164,51.160035 0 0 0 79.54688,51.15982 79.548164,51.160035 0 0 0 79.54882,-51.15982 79.548164,51.160035 0 0 0 -1.85547,-10.94752 z" />
        <path
           id="path106"
           style="opacity:0.567308;fill:url(#linearGradient167);fill-opacity:1;stroke-width:0.727981"
           d="m 773.65878,343.33117 a 50.169579,33.727729 0 0 0 -0.57227,4.88418 50.169579,33.727729 0 0 0 50.16992,33.72696 50.169579,33.727729 0 0 0 50.16993,-33.72696 50.169579,33.727729 0 0 0 -0.53907,-4.88418 z" />
        <g
           id="g108"
           transform="translate(56.086955,48.022164)">
          <path
             id="path107"
             style="opacity:1;stroke-width:0.648507"
             d="m 699.19654,405.42982 c 4.01709,7.14809 -1.61909,13.93931 -6.17438,13.93931 -4.55529,1e-5 -10.01854,-6.84044 -8.24809,-14.84655 1.55528,-7.03307 3.95201,-13.8097 8.5073,-13.80969 4.55529,0 2.54541,8.72072 5.91517,14.71693 z"
             sodipodi:nodetypes="sssss" />
          <path
             style="opacity:1;fill:url(#linearGradient168)"
             d="m 691.05972,396.07624 -3.49936,6.3507 c 0,0 -1.94409,3.49936 -1.16646,4.79542 0.77764,1.29607 0,5.18425 1.29606,5.70267 1.29606,0.51843 3.88819,1.55528 3.88819,1.55528 0,0 -0.12961,-2.20331 -0.12961,-3.24015 0,-1.03685 -1.29606,-2.46252 -1.42567,-4.79543 -0.1296,-2.33291 0.25922,-0.90724 0,-3.24015 -0.25921,-2.33291 0.77764,-1.16646 1.16646,-3.36976 0.38882,-2.20331 1.68488,-5.18425 1.68488,-5.18425 z"
             id="path108"
             sodipodi:nodetypes="ccsscsssscc" />
        </g>
        <g
           id="g110"
           transform="rotate(50,682.72057,374.18476)">
          <path
             id="path109"
             style="opacity:1;stroke-width:0.648507"
             d="m 699.19654,405.42982 c 4.01709,7.14809 -1.61909,13.93931 -6.17438,13.93931 -4.55529,1e-5 -10.01854,-6.84044 -8.24809,-14.84655 1.55528,-7.03307 3.95201,-13.8097 8.5073,-13.80969 4.55529,0 2.54541,8.72072 5.91517,14.71693 z"
             sodipodi:nodetypes="sssss" />
          <path
             style="opacity:1;fill:url(#linearGradient169)"
             d="m 691.05972,396.07624 -3.49936,6.3507 c 0,0 -1.94409,3.49936 -1.16646,4.79542 0.77764,1.29607 0,5.18425 1.29606,5.70267 1.29606,0.51843 3.88819,1.55528 3.88819,1.55528 0,0 -0.12961,-2.20331 -0.12961,-3.24015 0,-1.03685 -1.29606,-2.46252 -1.42567,-4.79543 -0.1296,-2.33291 0.25922,-0.90724 0,-3.24015 -0.25921,-2.33291 0.77764,-1.16646 1.16646,-3.36976 0.38882,-2.20331 1.68488,-5.18425 1.68488,-5.18425 z"
             id="path110"
             sodipodi:nodetypes="ccsscsssscc" />
        </g>
        <g
           id="g112"
           transform="rotate(70,709.30609,362.29719)">
          <path
             id="path111"
             style="opacity:1;stroke-width:0.648507"
             d="m 699.19654,405.42982 c 4.01709,7.14809 -1.61909,13.93931 -6.17438,13.93931 -4.55529,1e-5 -10.01854,-6.84044 -8.24809,-14.84655 1.55528,-7.03307 3.95201,-13.8097 8.5073,-13.80969 4.55529,0 2.54541,8.72072 5.91517,14.71693 z"
             sodipodi:nodetypes="sssss" />
          <path
             style="opacity:1;fill:url(#linearGradient170)"
             d="m 691.05972,396.07624 -3.49936,6.3507 c 0,0 -1.94409,3.49936 -1.16646,4.79542 0.77764,1.29607 0,5.18425 1.29606,5.70267 1.29606,0.51843 3.88819,1.55528 3.88819,1.55528 0,0 -0.12961,-2.20331 -0.12961,-3.24015 0,-1.03685 -1.29606,-2.46252 -1.42567,-4.79543 -0.1296,-2.33291 0.25922,-0.90724 0,-3.24015 -0.25921,-2.33291 0.77764,-1.16646 1.16646,-3.36976 0.38882,-2.20331 1.68488,-5.18425 1.68488,-5.18425 z"
             id="path112"
             sodipodi:nodetypes="ccsscsssscc" />
        </g>
        <g
           id="g114"
           transform="rotate(31.840594,665.93078,446.9315)">
          <path
             id="path113"
             style="opacity:1;stroke-width:0.648507"
             d="m 699.19654,405.42982 c 4.01709,7.14809 -1.61909,13.93931 -6.17438,13.93931 -4.55529,1e-5 -10.01854,-6.84044 -8.24809,-14.84655 1.55528,-7.03307 3.95201,-13.8097 8.5073,-13.80969 4.55529,0 2.54541,8.72072 5.91517,14.71693 z"
             sodipodi:nodetypes="sssss" />
          <path
             style="opacity:1;fill:url(#linearGradient171)"
             d="m 691.05972,396.07624 -3.49936,6.3507 c 0,0 -1.94409,3.49936 -1.16646,4.79542 0.77764,1.29607 0,5.18425 1.29606,5.70267 1.29606,0.51843 3.88819,1.55528 3.88819,1.55528 0,0 -0.12961,-2.20331 -0.12961,-3.24015 0,-1.03685 -1.29606,-2.46252 -1.42567,-4.79543 -0.1296,-2.33291 0.25922,-0.90724 0,-3.24015 -0.25921,-2.33291 0.77764,-1.16646 1.16646,-3.36976 0.38882,-2.20331 1.68488,-5.18425 1.68488,-5.18425 z"
             id="path114"
             sodipodi:nodetypes="ccsscsssscc" />
        </g>
        <g
           id="g116"
           transform="rotate(-8.5250354,994.3616,-319.21155)">
          <path
             id="path115"
             style="opacity:1;stroke-width:0.648507"
             d="m 699.19654,405.42982 c 4.01709,7.14809 -1.61909,13.93931 -6.17438,13.93931 -4.55529,1e-5 -10.01854,-6.84044 -8.24809,-14.84655 1.55528,-7.03307 3.95201,-13.8097 8.5073,-13.80969 4.55529,0 2.54541,8.72072 5.91517,14.71693 z"
             sodipodi:nodetypes="sssss" />
          <path
             style="opacity:1;fill:url(#linearGradient172)"
             d="m 691.05972,396.07624 -3.49936,6.3507 c 0,0 -1.94409,3.49936 -1.16646,4.79542 0.77764,1.29607 0,5.18425 1.29606,5.70267 1.29606,0.51843 3.88819,1.55528 3.88819,1.55528 0,0 -0.12961,-2.20331 -0.12961,-3.24015 0,-1.03685 -1.29606,-2.46252 -1.42567,-4.79543 -0.1296,-2.33291 0.25922,-0.90724 0,-3.24015 -0.25921,-2.33291 0.77764,-1.16646 1.16646,-3.36976 0.38882,-2.20331 1.68488,-5.18425 1.68488,-5.18425 z"
             id="path116"
             sodipodi:nodetypes="ccsscsssscc" />
        </g>
        <g
           id="g118"
           transform="rotate(-28.053519,841.89493,110.27962)">
          <path
             id="path117"
             style="opacity:1;stroke-width:0.648507"
             d="m 699.19654,405.42982 c 4.01709,7.14809 -1.61909,13.93931 -6.17438,13.93931 -4.55529,1e-5 -10.01854,-6.84044 -8.24809,-14.84655 1.55528,-7.03307 3.95201,-13.8097 8.5073,-13.80969 4.55529,0 2.54541,8.72072 5.91517,14.71693 z"
             sodipodi:nodetypes="sssss" />
          <path
             style="opacity:1;fill:url(#linearGradient173)"
             d="m 691.05972,396.07624 -3.49936,6.3507 c 0,0 -1.94409,3.49936 -1.16646,4.79542 0.77764,1.29607 0,5.18425 1.29606,5.70267 1.29606,0.51843 3.88819,1.55528 3.88819,1.55528 0,0 -0.12961,-2.20331 -0.12961,-3.24015 0,-1.03685 -1.29606,-2.46252 -1.42567,-4.79543 -0.1296,-2.33291 0.25922,-0.90724 0,-3.24015 -0.25921,-2.33291 0.77764,-1.16646 1.16646,-3.36976 0.38882,-2.20331 1.68488,-5.18425 1.68488,-5.18425 z"
             id="path118"
             sodipodi:nodetypes="ccsscsssscc" />
        </g>
        <g
           id="g120"
           transform="rotate(-52.184597,778.5299,216.33708)">
          <path
             id="path119"
             style="opacity:1;stroke-width:0.648507"
             d="m 699.19654,405.42982 c 4.01709,7.14809 -1.61909,13.93931 -6.17438,13.93931 -4.55529,1e-5 -10.01854,-6.84044 -8.24809,-14.84655 1.55528,-7.03307 3.95201,-13.8097 8.5073,-13.80969 4.55529,0 2.54541,8.72072 5.91517,14.71693 z"
             sodipodi:nodetypes="sssss" />
          <path
             style="opacity:1;fill:url(#linearGradient174)"
             d="m 691.05972,396.07624 -3.49936,6.3507 c 0,0 -1.94409,3.49936 -1.16646,4.79542 0.77764,1.29607 0,5.18425 1.29606,5.70267 1.29606,0.51843 3.88819,1.55528 3.88819,1.55528 0,0 -0.12961,-2.20331 -0.12961,-3.24015 0,-1.03685 -1.29606,-2.46252 -1.42567,-4.79543 -0.1296,-2.33291 0.25922,-0.90724 0,-3.24015 -0.25921,-2.33291 0.77764,-1.16646 1.16646,-3.36976 0.38882,-2.20331 1.68488,-5.18425 1.68488,-5.18425 z"
             id="path120"
             sodipodi:nodetypes="ccsscsssscc" />
        </g>
        <g
           id="g122"
           transform="rotate(-54.796438,769.0011,167.69358)">
          <path
             id="path121"
             style="opacity:1;stroke-width:0.648507"
             d="m 699.19654,405.42982 c 4.01709,7.14809 -1.61909,13.93931 -6.17438,13.93931 -4.55529,1e-5 -10.01854,-6.84044 -8.24809,-14.84655 1.55528,-7.03307 3.95201,-13.8097 8.5073,-13.80969 4.55529,0 2.54541,8.72072 5.91517,14.71693 z"
             sodipodi:nodetypes="sssss" />
          <path
             style="opacity:1;fill:url(#linearGradient175)"
             d="m 691.05972,396.07624 -3.49936,6.3507 c 0,0 -1.94409,3.49936 -1.16646,4.79542 0.77764,1.29607 0,5.18425 1.29606,5.70267 1.29606,0.51843 3.88819,1.55528 3.88819,1.55528 0,0 -0.12961,-2.20331 -0.12961,-3.24015 0,-1.03685 -1.29606,-2.46252 -1.42567,-4.79543 -0.1296,-2.33291 0.25922,-0.90724 0,-3.24015 -0.25921,-2.33291 0.77764,-1.16646 1.16646,-3.36976 0.38882,-2.20331 1.68488,-5.18425 1.68488,-5.18425 z"
             id="path122"
             sodipodi:nodetypes="ccsscsssscc" />
        </g>
        <g
           id="g124"
           transform="rotate(27.927183,732.06612,544.579)">
          <path
             id="path123"
             style="opacity:1;stroke-width:0.648507"
             d="m 699.19654,405.42982 c 4.01709,7.14809 -1.61909,13.93931 -6.17438,13.93931 -4.55529,1e-5 -10.01854,-6.84044 -8.24809,-14.84655 1.55528,-7.03307 3.95201,-13.8097 8.5073,-13.80969 4.55529,0 2.54541,8.72072 5.91517,14.71693 z"
             sodipodi:nodetypes="sssss" />
          <path
             style="opacity:1;fill:url(#linearGradient176)"
             d="m 691.05972,396.07624 -3.49936,6.3507 c 0,0 -1.94409,3.49936 -1.16646,4.79542 0.77764,1.29607 0,5.18425 1.29606,5.70267 1.29606,0.51843 3.88819,1.55528 3.88819,1.55528 0,0 -0.12961,-2.20331 -0.12961,-3.24015 0,-1.03685 -1.29606,-2.46252 -1.42567,-4.79543 -0.1296,-2.33291 0.25922,-0.90724 0,-3.24015 -0.25921,-2.33291 0.77764,-1.16646 1.16646,-3.36976 0.38882,-2.20331 1.68488,-5.18425 1.68488,-5.18425 z"
             id="path124"
             sodipodi:nodetypes="ccsscsssscc" />
        </g>
        <g
           id="g126"
           transform="rotate(51.917797,742.2426,419.388)">
          <path
             id="path125"
             style="opacity:1;stroke-width:0.648507"
             d="m 699.19654,405.42982 c 4.01709,7.14809 -1.61909,13.93931 -6.17438,13.93931 -4.55529,1e-5 -10.01854,-6.84044 -8.24809,-14.84655 1.55528,-7.03307 3.95201,-13.8097 8.5073,-13.80969 4.55529,0 2.54541,8.72072 5.91517,14.71693 z"
             sodipodi:nodetypes="sssss" />
          <path
             style="opacity:1;fill:url(#linearGradient177)"
             d="m 691.05972,396.07624 -3.49936,6.3507 c 0,0 -1.94409,3.49936 -1.16646,4.79542 0.77764,1.29607 0,5.18425 1.29606,5.70267 1.29606,0.51843 3.88819,1.55528 3.88819,1.55528 0,0 -0.12961,-2.20331 -0.12961,-3.24015 0,-1.03685 -1.29606,-2.46252 -1.42567,-4.79543 -0.1296,-2.33291 0.25922,-0.90724 0,-3.24015 -0.25921,-2.33291 0.77764,-1.16646 1.16646,-3.36976 0.38882,-2.20331 1.68488,-5.18425 1.68488,-5.18425 z"
             id="path126"
             sodipodi:nodetypes="ccsscsssscc" />
        </g>
        <g
           id="g128"
           transform="rotate(-9.2083926,673.02888,-368.60009)">
          <path
             id="path127"
             style="opacity:1;stroke-width:0.648507"
             d="m 699.19654,405.42982 c 4.01709,7.14809 -1.61909,13.93931 -6.17438,13.93931 -4.55529,1e-5 -10.01854,-6.84044 -8.24809,-14.84655 1.55528,-7.03307 3.95201,-13.8097 8.5073,-13.80969 4.55529,0 2.54541,8.72072 5.91517,14.71693 z"
             sodipodi:nodetypes="sssss" />
          <path
             style="opacity:1;fill:url(#linearGradient178)"
             d="m 691.05972,396.07624 -3.49936,6.3507 c 0,0 -1.94409,3.49936 -1.16646,4.79542 0.77764,1.29607 0,5.18425 1.29606,5.70267 1.29606,0.51843 3.88819,1.55528 3.88819,1.55528 0,0 -0.12961,-2.20331 -0.12961,-3.24015 0,-1.03685 -1.29606,-2.46252 -1.42567,-4.79543 -0.1296,-2.33291 0.25922,-0.90724 0,-3.24015 -0.25921,-2.33291 0.77764,-1.16646 1.16646,-3.36976 0.38882,-2.20331 1.68488,-5.18425 1.68488,-5.18425 z"
             id="path128"
             sodipodi:nodetypes="ccsscsssscc" />
        </g>
        <g
           id="g130"
           transform="rotate(33.86412,797.97132,530.20094)">
          <path
             id="path129"
             style="opacity:1;stroke-width:0.648507"
             d="m 699.19654,405.42982 c 4.01709,7.14809 -1.61909,13.93931 -6.17438,13.93931 -4.55529,1e-5 -10.01854,-6.84044 -8.24809,-14.84655 1.55528,-7.03307 3.95201,-13.8097 8.5073,-13.80969 4.55529,0 2.54541,8.72072 5.91517,14.71693 z"
             sodipodi:nodetypes="sssss" />
          <path
             style="opacity:1;fill:url(#linearGradient179)"
             d="m 691.05972,396.07624 -3.49936,6.3507 c 0,0 -1.94409,3.49936 -1.16646,4.79542 0.77764,1.29607 0,5.18425 1.29606,5.70267 1.29606,0.51843 3.88819,1.55528 3.88819,1.55528 0,0 -0.12961,-2.20331 -0.12961,-3.24015 0,-1.03685 -1.29606,-2.46252 -1.42567,-4.79543 -0.1296,-2.33291 0.25922,-0.90724 0,-3.24015 -0.25921,-2.33291 0.77764,-1.16646 1.16646,-3.36976 0.38882,-2.20331 1.68488,-5.18425 1.68488,-5.18425 z"
             id="path130"
             sodipodi:nodetypes="ccsscsssscc" />
        </g>
      </g>
    </g>
    <g
       id="g90">
      <ellipse
         style="opacity:1;fill:url(#radialGradient89);stroke-width:0.883091"
         id="ellipse88"
         cx="308.46249"
         cy="485.24521"
         rx="222.40408"
         ry="39.400249" />
      <g
         id="g30"
         transform="translate(-223.08992,-77.573122)">
        <path
           id="path1"
           d="M 733.05206,418.3685 C 731.07018,550.54245 641.83421,573.37739 485.76363,563.0089 373.4882,555.54993 325.5705,500.52807 325.5705,396.59468 c 0,-103.93339 84.99676,-158.11944 197.51969,-158.11944 112.52292,0 211.73489,61.64881 209.96187,179.89326 z"
           sodipodi:nodetypes="sssss"
           style="display:inline;fill:url(#radialGradient17);fill-opacity:1" />
        <path
           id="path9"
           style="fill:#00843e;fill-opacity:1"
           d="m 516.9668,238.56836 c -8.5854,0.15244 -17.01604,0.59471 -25.23633,1.38672 l 0.95508,8.58789 c 0,0 -5.13282,13.92841 -5.13282,19.06055 0,5.13212 1.4668,16.13085 1.4668,16.13086 0,0 -7.33203,19.06149 -7.33203,21.99414 0,2.93263 2.93359,21.99609 2.93359,21.99609 0,0 4.39844,18.32806 4.39844,24.19336 0,5.86528 7.5e-4,14.66353 -0.73242,19.0625 -0.73316,4.39896 -0.73438,19.79513 -0.73438,23.46094 0,3.6658 2.19922,10.99847 2.19922,18.33007 v 24.19336 c 0,4.39897 -2.19947,16.13008 0,22.72852 2.19949,6.59845 8.79883,16.86322 8.79883,22.72852 0,5.86528 3.66602,20.52729 3.66602,26.39257 0,5.8653 3.66601,25.66211 3.66601,25.66211 l 2.93164,28.5918 1.65625,1.27344 c 4.34944,0.19131 8.55239,0.29434 12.78516,0.41992 2.28232,-2.74362 4.65708,-5.81263 5.35547,-7.5586 1.46632,-3.6658 2.93137,-10.26454 5.13086,-19.0625 2.19949,-8.79793 3.66675,-44.72112 2.93359,-52.05273 -0.73316,-7.3316 -6.59961,-32.26093 -6.59961,-38.85937 0,-6.59847 -2.19895,-16.86223 -4.39844,-25.66016 -2.19947,-8.79794 -8.79882,-26.39327 -8.79882,-31.52539 v -35.92578 c 0,0 3.66649,-12.46237 5.13281,-16.86133 1.46633,-4.39897 1.4668,-6.59971 1.4668,-21.99609 0,-15.3964 -1.46755,-13.19668 -0.73438,-23.46094 0.73316,-10.26426 1.46728,-19.06144 2.93359,-27.85938 1.46632,-8.79793 5.86578,-6.59854 1.4668,-15.39648 -1.88008,-3.76017 -6.03378,-7.20776 -10.17773,-9.97461 z m 38.34765,1.65039 -4.70898,3.92383 v 14.66406 c 0,5.13214 -6.59886,12.4631 -7.33203,16.12891 -0.73316,3.6658 0.73365,14.66305 1.46679,17.5957 0.73316,2.93265 7.33204,16.13107 7.33204,19.79687 0,3.66581 -2.19969,13.19647 -3.66602,19.79493 -1.46632,6.59845 -0.73316,18.32955 0,22.72851 0.73317,4.39898 0.73364,16.1296 1.4668,21.26172 0.73316,5.13214 2.93164,20.52823 2.93164,29.32617 0,8.79793 1.46606,23.46115 2.19922,27.12696 0.73316,3.66579 5.86523,21.26172 5.86523,21.26171 0,0 -6.59766,19.0624 -6.59766,30.79297 0,11.73058 3.66602,27.8596 3.66602,31.52539 0,3.66581 2.93164,25.66016 2.93164,25.66016 l 9.00586,22.85938 c 9.9309,-0.43359 19.44556,-1.15402 28.52734,-2.19336 0.76356,-1.38518 1.32422,-2.71065 1.32422,-3.80274 0,-5.86528 2.93333,-24.19499 5.13282,-32.25976 2.19947,-8.06479 4.3987,-15.39611 2.19921,-29.32618 -2.19947,-13.93006 -5.13281,-20.52896 -5.13281,-28.59375 0,-8.06477 -1.46484,-15.39495 -1.46484,-22.72656 0,-7.33161 -2.93333,-2.20031 -5.13282,-14.66406 -2.19946,-12.46374 -10.99657,-35.92425 -12.46289,-43.25586 -1.46631,-7.33161 9.53125,-17.59665 9.53125,-20.5293 0,-2.93263 -2.20097,-5.13227 1.46485,-9.53125 3.66579,-4.39895 13.92969,-8.06391 13.92969,-12.46289 0,-4.39895 -0.73243,-19.0625 -0.73243,-19.0625 l 6.59961,-16.86328 c 0,0 -19.06223,-16.12984 -21.26172,-19.0625 -2.19947,-2.93265 -10.26515,-11.73089 -8.79882,-19.0625 1.4663,-7.33161 1.46679,-7.33123 1.46679,-13.92969 0,-3.3318 0.36872,-7.9691 0.0781,-12.21875 -9.70712,-2.16186 -19.67274,-3.79578 -29.82813,-4.90234 z m -93.25781,4.16602 c -8.10435,1.66528 -15.94072,3.69969 -23.50781,6.06445 l -4.51563,11.28906 c 0,0 0.73243,18.32906 0.73242,21.26172 v 19.79688 27.12695 c 0,2.93265 -3.66601,10.99603 -3.66601,16.86133 v 23.46289 l 2.19922,28.59179 -3.66602,18.33008 c 0,0 7.33203,32.99118 7.33203,35.92383 v 27.86133 c 0,2.93265 4.39965,21.99409 5.13282,27.85937 0.73316,5.8653 4.39769,27.86032 5.13086,30.79297 0.53915,2.15667 1.87839,13.3905 4.0039,19.20703 6.85474,1.24628 14.005,2.26727 21.47266,3.05078 l 5.3164,-7.59375 10.99805,-17.5957 -5.86523,-20.5293 c 0,0 -9.53125,-16.12884 -9.53125,-21.99414 0,-5.86529 -1.4668,-40.32421 -1.4668,-40.32422 0,0 -2.93164,-20.5283 -2.93164,-23.46093 0,-2.93265 2.93164,-22.72852 2.93164,-22.72852 l -2.19922,-25.66015 c 0,0 -5.86451,-13.19695 -6.59765,-21.26172 -0.73317,-8.06479 -1.46707,-24.19453 0.73242,-30.79297 2.19947,-6.59847 3.66601,-22.72852 3.66601,-22.72852 l 4.39844,-19.0625 c 0,0 -0.73337,-12.46331 -3.66602,-19.79492 -2.42012,-6.05033 -5.31295,-18.88162 -6.43359,-23.95312 z m 150.91211,8.625 c 0.0853,5.65088 1.42188,21.19335 1.42187,21.19335 l 2.93165,29.32618 c 0,0 -1.46633,17.5959 0,21.26172 1.4663,3.66579 1.46679,20.5285 1.46679,27.12695 0,6.59845 1.4668,22.72851 1.4668,22.72851 0,0 0.73242,10.99674 0.73242,21.99414 0,10.99742 2.19949,10.99751 0,15.39649 -2.19949,4.39896 -3.66601,14.66448 -3.66601,21.99609 0,7.33162 2.20117,15.39616 2.20117,23.46094 0,8.06477 1.46484,13.19552 1.46484,16.86133 0,3.66581 -1.46605,19.06346 -2.19922,21.99609 -0.73316,2.93266 -0.73242,13.19673 -0.73242,17.59571 0,4.39896 4.3977,30.06001 5.13086,34.45898 0.68064,4.08386 2.58163,5.72757 3.44336,9.44922 1.58818,-0.34789 3.19932,-0.67726 4.75391,-1.05274 2.15927,-2.40966 4.26757,-5.46484 4.26757,-5.46484 0,0 8.06446,2.9337 8.06446,-8.79687 0,-11.73058 -1.46559,-21.26134 -0.73242,-35.19141 0.73314,-13.93008 5.13085,-33.72599 5.13085,-43.99023 0,-10.26426 1.46733,-12.4642 -2.93164,-28.59376 -4.39896,-16.12954 -2.93359,-34.45817 -2.93359,-41.05664 0,-6.59844 0.73418,-12.46494 -2.93164,-27.86132 -3.66581,-15.3964 1.4668,-38.12347 1.4668,-45.45508 V 283 c 0,-5.86529 -2.20044,-12.46358 -2.9336,-17.5957 -0.0941,-0.65886 -0.36644,-1.44411 -0.7539,-2.30274 -7.74064,-3.78627 -15.78453,-7.17413 -24.12891,-10.09179 z m -202.70508,8.53711 c -10.14642,4.91118 -19.5763,10.58521 -28.16211,17.04101 l -4.52344,5.87891 5.86524,26.39453 -3.66406,19.0625 c 0,0 3.66406,9.5312 3.66406,15.39648 0,5.86531 -1.46484,15.39596 -1.46484,19.79492 v 16.12891 c 0,2.93265 1.46484,22.72852 1.46484,22.72852 v 13.92968 c 0,2.93265 -2.93211,8.79877 -4.39844,14.66407 -1.46632,5.86528 2.9336,27.12695 2.9336,27.12695 l 4.39843,30.05859 c 0,0 5.86524,16.8639 5.86524,27.86133 v 20.85156 c 8.03203,4.618 16.87127,8.57497 26.47265,11.93164 l 1.38672,-16.65429 c 0,0 3.66723,-17.59566 4.40039,-23.46094 0.73316,-5.86528 2.19922,-25.66016 2.19922,-25.66016 0,0 -10.99804,-19.79586 -10.99805,-22.72851 0,-2.93265 -7.33203,-27.1279 -7.33203,-30.06055 0,-2.93265 -1.46607,-21.26065 -2.19921,-30.05859 -0.73316,-8.79793 -0.73195,-35.19162 0.73437,-38.85742 1.46633,-3.66581 -0.73437,-58.6543 -0.73437,-58.6543 0,0 2.19969,-4.39839 3.66601,-10.26367 1.46633,-5.8653 2.93359,-24.92774 2.93359,-24.92774 z m 249.7461,14.71093 c -0.31575,0.88194 -0.64485,1.84048 -0.89649,2.34375 -1.46633,2.93265 -2.19922,19.79634 -2.19922,24.19532 0,4.39896 -12.46484,38.85742 -12.46484,38.85742 v 13.19726 c 0,3.66582 5.86523,27.85938 5.86523,27.85938 0,0 8.79809,39.59047 9.53125,50.58789 0.73316,10.99742 1.46633,18.32949 0,28.59375 -1.46632,10.26426 -2.93164,21.99414 -2.93164,21.99414 0,0 5.86524,37.39157 5.86524,40.32422 0,2.23381 4.62424,12.59133 7.25976,18.39453 5.83972,-3.08764 11.29074,-6.54211 16.34571,-10.38281 0.18643,-9.14219 0.58789,-28.234 0.58789,-32.93946 0,-5.86529 -3.66407,-29.32516 -3.66407,-32.25781 0,-2.93265 -0.73316,-23.46188 0,-26.39453 0.73316,-2.93265 3.66407,-24.92842 3.66407,-30.06055 0,-5.13212 -6.59813,-31.52608 -8.06446,-36.6582 -1.46632,-5.13214 0,-21.99408 0,-27.85938 0,-5.86528 8.06446,-19.79492 8.06446,-19.79492 l 4.1875,-23.55859 c -9.17719,-9.97384 -19.66413,-18.76566 -31.15039,-26.44141 z m -293.0625,15.4668 c -7.27351,7.19803 -13.7123,15.10303 -19.20313,23.73047 0.39934,1.35726 2.64791,9.20057 1.97461,15.93359 -0.73316,7.33161 -7.33203,24.19531 -7.33203,24.19531 0,0 0.73437,9.5314 0.73437,19.0625 v 30.79297 c 0,0 -1.46631,13.92937 0,21.99414 1.46632,8.06479 5.86524,23.4619 5.86524,26.39453 v 19.0625 l -1.84375,20.875 c 5.25649,9.10802 11.53555,17.30405 18.83203,24.62891 l 0.60742,-1.51562 c 0,0 2.93137,2.93301 5.13086,-13.92969 2.19948,-16.86271 4.40039,-14.66301 4.40039,-23.46094 0,-8.79793 -5.13281,-23.46041 -5.13281,-27.85937 v -10.99805 c 0,-12.46375 -1.46632,-10.99725 0,-17.5957 1.46633,-6.59846 8.06376,13.93017 2.93164,-11.73047 -5.13214,-25.66066 -5.86376,-20.52918 -7.33008,-32.25977 -1.46633,-11.73058 -3.66627,-16.12953 -1.4668,-27.12695 2.19949,-10.99742 3.66602,-10.2645 3.66602,-24.92774 0,-14.17075 1.99849,-21.55478 -1.83398,-35.26562 z m 337.19921,27.17383 -6.17578,19.08984 c 0,0 -3.66601,30.05954 -3.66601,32.99219 0,2.93265 7.33203,27.12657 7.33203,41.05664 0,13.93007 2.93359,40.32422 2.93359,40.32422 0,0 -1.46705,22.72871 0.73242,26.39453 1.41256,2.35426 6.91138,10.4158 11.41993,16.99219 5.54087,-10.884 9.68672,-23.31332 12.41796,-37.41993 -1.39636,-12.48013 -3.18673,-26.55471 -4.04296,-28.69531 -1.46632,-3.6658 -5.86402,-39.5908 -5.13086,-42.52343 0.73316,-2.93266 1.46484,-22.72771 1.46484,-29.32618 0,-3.19553 -0.69512,-6.73449 -1.4043,-10.20117 -4.32845,-10.27823 -9.66998,-19.83258 -15.88086,-28.68359 z" />
        <path
           id="path2"
           style="fill:#004c23;fill-opacity:1"
           d="m 518.17773,238.54883 c -6.40185,0.091 -12.71133,0.35505 -18.91601,0.80078 -1.85012,6.27396 -4.37695,15.21372 -4.37695,18.72461 0,5.13212 -4.39844,33.72476 -4.39844,43.25586 0,9.53109 2.93211,35.19256 4.39844,41.79101 1.4663,6.59846 3.66553,13.92864 2.19921,22.72657 -1.46631,8.79794 -2.19995,26.39468 -1.46679,35.92578 0.73316,9.5311 2.93406,32.99214 4.40039,38.85742 1.46632,5.86528 -1.4666,25.66011 2.19922,31.52539 3.66579,5.86528 6.59812,18.32875 8.06445,29.32617 1.46632,10.99743 4.39964,24.92931 5.13281,38.85938 0.66821,12.69603 2.95374,22.48649 3.39063,24.3125 0.80067,0.028 1.55889,0.031 2.35547,0.0566 0.63812,-4.09253 1.75318,-9.22236 3.78515,-15.57227 5.86531,-18.32903 6.59793,-38.12477 4.39844,-61.58594 -2.19949,-23.46115 -1.46627,-17.59446 -5.86523,-43.98828 -4.39898,-26.3938 -8.79883,-37.39146 -8.79883,-52.05468 0,-14.66323 -1.46485,-32.25912 -1.46485,-48.38868 0,-16.12955 2.19922,-41.058 2.19922,-51.32226 0,-10.26426 7.3311,-36.65762 4.39844,-46.92188 -0.55631,-1.94709 -1.09848,-4.15172 -1.63477,-6.32812 z m -20.12304,0.89453 c -0.0346,0.003 -0.069,0.005 -0.10352,0.008 l -0.13281,0.29297 z m 60.15039,1.13476 -2.4668,16.0293 c 0,0 -5.86672,19.79587 -4.40039,22.72852 1.46632,2.93263 8.79883,24.92762 8.79883,36.6582 0,11.73059 0.73242,37.39053 0.73242,49.12109 0,11.73059 -3.66581,30.05996 0,40.32422 3.66582,10.26425 8.06566,31.52581 8.79883,38.85743 0.73316,7.33161 0.73242,28.59364 0.73242,40.32421 0,11.73058 -0.73242,40.32442 -0.73242,43.99024 0,3.66579 6.59812,27.12569 8.06445,32.25781 0.26724,0.93535 0.7878,2.14895 1.28516,3.33203 3.44828,-0.2189 6.84131,-0.47761 10.18164,-0.77344 2.32241,-7.39706 4.66211,-15.27818 4.66211,-17.2207 0,-3.66582 1.4668,-2.93363 1.46679,-24.19531 V 480.2207 c 0,-16.12954 4.39849,-17.59505 -1.46679,-33.72461 -5.8653,-16.12954 -7.33176,-25.66004 -9.53125,-37.39062 -2.19949,-11.73059 -2.19922,-5.86675 -2.19922,-25.66211 0,-19.79535 -4.39897,-28.59343 0,-36.6582 4.39896,-8.06479 24.19494,-16.12874 10.99805,-33.72461 -13.19692,-17.59589 -19.79614,-24.19425 -20.5293,-32.99219 -0.73317,-8.79793 2.19922,-18.33003 2.19922,-24.19531 0,-2.34669 -0.1523,-6.99272 -0.29297,-12.90625 -5.36339,-0.96611 -10.811,-1.73352 -16.30078,-2.38868 z m -100.96875,4.8711 c -4.42497,0.99855 -8.78968,2.07852 -13.05078,3.29101 -3.01239,6.64898 -7.22071,16.42316 -7.22071,21.06446 0,6.59844 8.06446,32.2585 8.06446,37.39062 0,5.13214 -4.39918,32.99315 -3.66602,35.92578 0.73317,2.93265 0.73438,19.06118 0.73438,30.0586 0,10.99742 -0.001,19.06313 -0.73438,30.06054 -0.73316,10.99742 -0.73242,28.5918 -0.73242,28.5918 0,0 2.20016,9.5314 5.13281,19.0625 2.93265,9.5311 2.93164,22.72874 2.93164,26.39453 0,3.66582 -3.66459,18.32976 0.73438,26.39453 4.39896,8.06479 5.86449,19.06244 6.59765,24.92774 0.73316,5.86528 0.73243,10.99603 0.73243,16.86133 0,4.41044 2.41958,11.10719 3.85937,14.875 3.41647,0.49805 6.90316,0.94221 10.46094,1.33398 0.60809,-4.05608 1.2533,-7.93764 1.81054,-9.60937 1.46633,-4.39898 8.79816,-10.26472 3.66602,-28.59375 -5.13212,-18.32905 -8.06492,-13.93027 -9.53125,-30.79297 -1.46632,-16.86272 -2.93359,-7.3326 -2.93359,-24.19532 v -32.99218 c 0,-19.79536 2.93337,-9.52982 -0.73242,-32.25782 -3.66582,-22.72799 -8.0652,-27.86121 -7.33204,-39.59179 0.73316,-11.73059 -0.73389,-29.32539 0.73243,-35.92383 1.46631,-6.59845 6.5996,-20.52945 6.59961,-30.06055 0,-9.53109 -8.0652,-27.12636 -7.33204,-37.39062 0.30253,-4.23537 0.66488,-8.23028 1.20899,-14.82422 z m 162.52344,10.0957 1.96289,24.52344 v 20.5293 c 0,10.99743 2.19847,37.38982 2.93164,43.98828 0.73316,6.59845 0,19.79676 0,31.52734 0,11.73059 4.39843,44.72212 4.39843,49.1211 v 29.32617 43.25781 c 0,14.66322 -1.4663,17.59553 0,35.19141 0.64449,7.73379 1.41502,15.22702 2.09375,21.46679 0.0738,-5.34822 0.46705,-12.54457 1.57227,-22.93359 3.66581,-34.45859 4.40039,-27.12757 4.40039,-38.125 v -41.05664 c 0,-22.72801 0.73317,-25.66026 0,-41.05664 -0.73316,-15.3964 -4.40039,-25.66194 -4.40039,-43.25781 0,-17.59589 -1.46484,-35.19055 -1.46484,-47.6543 v -27.86133 c 0,-12.75021 2.86669,-21.58298 2.4082,-31.06836 -4.53267,-2.1165 -9.16537,-4.09195 -13.90234,-5.91797 z m 11.38671,298.93164 c -0.0137,0.99401 0.0476,1.50852 0.0566,2.36524 0.0683,-0.0164 0.14075,-0.0284 0.20899,-0.0449 -0.1346,-1.20277 -0.1193,-0.97512 -0.26563,-2.32032 z M 403.48242,264.98242 c -5.36147,2.87526 -10.48338,5.99751 -15.3789,9.33399 -2.04322,3.7071 -3.92579,7.40523 -3.92579,8.68359 v 18.33008 c 0,10.99742 1.46606,34.45914 2.19922,43.99023 0.73317,9.5311 0.73242,27.12731 0.73243,40.32422 0,13.19691 -1.46485,39.59079 -1.46485,42.52344 0,2.93265 -4.39896,13.19668 0,23.46094 4.39898,10.26426 5.86348,18.32795 9.5293,35.92382 3.66579,17.59589 3.66601,24.92889 3.66601,31.52735 0,6.21952 0.0226,19.28136 0.63672,23.2539 3.43702,1.72157 7.03011,3.3155 10.72461,4.83008 0.83281,-3.33426 1.75176,-8.62945 2.57031,-17.08789 2.19949,-22.728 4.39723,-20.52893 3.66407,-34.45898 -0.73317,-13.93007 4.40023,-1.46463 -5.13086,-24.92578 -9.5311,-23.46117 -12.46485,-13.19853 -12.46485,-35.19336 v -28.5918 c 0,-15.39638 0.73438,-10.99882 0.73438,-31.52734 V 345.32031 283 c 0,-4.56008 3.13407,-15.38026 3.9082,-18.01758 z m 261.4961,14.68946 v 28.25585 c 0,0 -5.13255,15.39664 -7.33204,24.92774 -2.19947,9.53109 -4.39794,21.99624 -2.93164,31.52734 1.46633,9.53109 -0.73442,-8.06553 5.13086,27.85938 5.8653,35.9249 8.06641,39.59 8.06641,49.12109 0,9.5311 -10e-4,29.32638 -0.73438,32.99219 -0.73314,3.66581 -2.93311,21.99575 -1.46679,30.06055 1.46633,8.06477 5.86523,31.52539 5.86523,31.52539 0,0 0.56566,2.972 1,5.29297 1.92952,-1.07634 3.80577,-2.20453 5.64649,-3.36524 0.78587,-2.0812 1.41992,-4.71639 1.41992,-9.25781 0,-10.99742 -1.46606,-18.33018 -2.19922,-33.72656 -0.73316,-15.3964 -0.73438,-13.19742 -0.73438,-22.72852 0,-9.5311 2.19922,-43.25607 2.19922,-46.92187 0,-3.66581 1.46659,-5.86507 -2.19922,-23.46094 -3.6658,-17.59587 -7.33203,-13.19731 -7.33203,-34.45899 0,-21.26168 8.79883,-40.3239 8.79883,-48.38867 0,-5.82262 5.27113,-13.59845 5.21094,-24.07031 -5.7418,-5.45151 -11.89209,-10.51342 -18.4082,-15.18359 z m -302.1504,16.26953 c -3.162,3.40271 -6.15553,6.94529 -8.95117,10.64453 -0.63678,4.06511 -1.22656,8.11668 -1.22656,9.4082 v 38.12305 27.12695 c 0,3.66582 -2.19922,32.25977 -2.19922,32.25977 0,0 7.33203,24.19376 7.33203,31.52539 0,7.33161 -1.46679,16.1298 -1.46679,24.92773 v 33.72656 l 4.27343,8.9336 c 1.23499,1.41943 2.48914,2.82345 3.79297,4.18359 v -18.98242 -35.92578 -31.52539 -24.19531 c 0,-11.73059 1.46632,-13.93 0,-32.99219 -1.46633,-19.06219 -5.13281,-27.12711 -5.13281,-36.65821 0,-9.5311 -2.93265,-21.2614 0,-29.32617 1.18381,-3.25547 2.44489,-7.38917 3.57812,-11.2539 z m 343.20704,25.71875 v 35.39062 c 0,5.8653 -5.13214,20.52734 0,47.6543 5.13212,27.12697 7.33203,35.19358 7.33203,38.85937 0,3.66582 -1.46584,25.65935 1.46679,32.25782 1.46459,3.29531 3.47851,8.6026 5.12696,13.08984 0.66862,-1.54768 1.29387,-3.14547 1.91211,-4.75 l -2.64063,-33.26758 -6.59765,-34.45898 0.73242,-31.52539 c 0,0 -0.73242,-27.86079 -0.73242,-32.25977 v -20.31641 c -2.04854,-3.67545 -4.27945,-7.21022 -6.59961,-10.67382 z" />
        <path
           id="path21"
           style="display:inline;opacity:0.330128;fill:#ffffff;fill-opacity:1"
           d="m 523.08984,235.54196 c -112.52281,0 -197.51953,54.18585 -197.51953,158.11914 0,63.88451 18.14184,109.25954 58.16797,136.49805 C 353.41135,502.34734 339.5,460.59997 339.5,404.65915 c 0,-103.93329 84.99671,-158.11914 197.51953,-158.11914 53.24393,0 103.48799,13.82522 141.48242,40.89648 -39.14125,-34.33205 -95.37576,-51.89453 -155.41211,-51.89453 z" />
        <path
           id="path24"
           style="display:inline;opacity:0.224359;fill:url(#radialGradient26);fill-opacity:1"
           d="m 692.23633,303.93555 c 12.8931,23.809 20.04088,51.94844 19.55469,84.37304 -1.98188,132.17382 -91.21864,155.00911 -247.28907,144.64063 -55.22009,-3.66852 -94.8404,-18.86965 -120.88086,-45.70899 23.02076,45.7599 68.86785,70.90156 142.14258,75.76954 156.07043,10.36848 245.30719,-12.46681 247.28906,-144.64063 0.70967,-47.32863 -14.79081,-85.56326 -40.8164,-114.43359 z" />
        <path
           id="path26"
           style="display:inline;opacity:0.224359;fill:url(#radialGradient27);fill-opacity:1;stroke-width:0.984825"
           d="m 692.00013,301.73606 c 12.50475,23.809 19.43723,51.94844 18.96569,84.37304 -1.92219,132.17382 -88.47108,155.00911 -239.84058,144.64063 -53.55683,-3.66852 -91.98376,-18.86965 -117.23986,-45.70899 22.32736,45.7599 66.79351,70.90156 137.86116,75.76954 151.3695,10.36848 237.9184,-12.46681 239.84057,-144.64063 0.6883,-47.32863 -14.3453,-85.56326 -39.58698,-114.43359 z" />
        <path
           id="path27"
           style="display:inline;opacity:0.224359;fill:url(#radialGradient28);fill-opacity:1;stroke-width:0.984825"
           d="m 679.53636,288.53913 c 12.50475,23.809 19.43723,51.94844 18.96569,84.37304 -1.92219,132.17382 -88.47108,155.00911 -239.84058,144.64063 -53.55683,-3.66852 -91.98376,-18.86965 -117.23986,-45.70899 22.32736,45.7599 66.79351,70.90156 137.86116,75.76954 151.3695,10.36848 237.9184,-12.46681 239.84057,-144.64063 0.6883,-47.32863 -14.3453,-85.56326 -39.58698,-114.43359 z" />
        <path
           id="path28"
           style="opacity:0.615385;fill:url(#linearGradient30);fill-opacity:1;stroke-width:1.17795"
           d="m 593.64843,267.38275 c 4.09355,22.2178 -79.95771,53.25705 -124.76623,69.64573 -45.10014,16.49534 -127.96153,42.50164 -127.9615,24.60833 3e-5,-17.89331 18.07302,-61.20516 65.18855,-94.59678 25.50007,-18.07236 183.90068,-19.40529 187.53918,0.34272 z"
           sodipodi:nodetypes="sssss" />
      </g>
      <ellipse
         style="opacity:1;fill:url(#radialGradient88);stroke-width:0.778034"
         id="path87"
         cx="545.90088"
         cy="515.31384"
         rx="172.63533"
         ry="39.400249" />
      <g
         id="g87"
         transform="translate(-233.37948,-0.45999869)">
        <path
           id="path34"
           style="opacity:1;fill:#00b153;fill-opacity:1;stroke-width:1.34998"
           d="m 592.16211,344.23438 a 184.04066,168.48793 0 0 0 -0.12109,1.55468 184.04066,168.48793 0 0 0 184.04101,168.48828 184.04066,168.48793 0 0 0 184.03906,-168.48828 184.04066,168.48793 0 0 0 -0.041,-1.55468 z" />
        <path
           id="path45"
           style="opacity:1;fill:#004c23;fill-opacity:1;stroke-width:1.34998"
           d="m 592.16211,344.23438 a 184.04066,168.48793 0 0 0 -0.12109,1.55468 184.04066,168.48793 0 0 0 184.04101,168.48828 184.04066,168.48793 0 0 0 184.03906,-168.48828 184.04066,168.48793 0 0 0 -0.041,-1.55468 H 949.40625 A 175.48663,177.73423 0 0 1 775.82227,496.13281 175.48663,177.73423 0 0 1 602.35547,344.23438 Z" />
        <path
           id="path30"
           style="opacity:1;fill:#00a34c;fill-opacity:1;stroke-width:1.34998"
           d="m 592.16211,344.23438 a 184.04066,168.48793 0 0 0 -0.12109,1.55468 184.04066,168.48793 0 0 0 0.27539,3.85156 l 5.57812,5.57618 5.49805,12.83008 -5.86524,3.30078 c 0,0 -0.35739,-5.77815 -2.89453,1.12109 a 184.04066,168.48793 0 0 0 4.61914,19.46289 c 0.1422,-0.023 0.3537,-0.0325 0.47461,-0.0566 1.83291,-0.36658 4.76597,-5.86395 7.33203,-0.36523 2.56607,5.49871 6.59901,6.23101 6.23243,12.46289 -0.36658,6.23187 -10e-4,8.43184 -1.83399,12.09765 -0.31803,0.63607 -0.85357,1.11445 -1.44726,1.54883 a 184.04066,168.48793 0 0 0 11.27539,18.70117 c 2.22991,1.0414 2.50631,2.00495 4.83593,-2.65429 3.66582,-7.33162 6.96472,-11.73175 8.06446,-6.59961 1.09975,5.13213 4.39904,6.59887 4.76562,17.96289 0.30038,9.3118 0.79052,8.19111 0.37305,12.98632 a 184.04066,168.48793 0 0 0 13.60156,12.51758 c 0.12748,-0.0849 0.18848,-0.11979 0.32227,-0.20898 5.49871,-3.66581 2.93171,-6.96524 7.69726,-3.66602 4.76555,3.29923 9.16602,-2.56518 9.16602,8.79883 0,3.66587 -0.44545,5.64731 -0.91797,7.15235 a 184.04066,168.48793 0 0 0 14.59375,8.92968 c 3.76724,-5.71222 0.19415,-10.25305 9.41797,-4.71875 10.99743,6.59846 9.53119,-1.8329 15.39648,10.63086 1.04016,2.21033 1.60246,3.96926 2.00586,5.54102 a 184.04066,168.48793 0 0 0 18.76172,5.71289 c 0.40514,-0.44202 0.77927,-0.80639 1.22852,-1.35547 6.59846,-8.06478 -0.36766,-15.39654 8.79687,-9.53125 9.16452,5.86529 8.43097,-2.93312 13.92969,9.16406 1.08819,2.39402 1.67341,4.32767 2.08203,6.05469 a 184.04066,168.48793 0 0 0 20.67578,1.24023 184.04066,168.48793 0 0 0 3.80469,-0.0762 c 2.66847,-4.99853 3.1519,-6.14018 5.33008,-8.31836 3.29923,-3.29922 3.30011,-7.33169 8.79882,-4.76562 5.49872,2.56606 1.46539,-2.93319 7.69727,4.39843 1.80127,2.11915 2.57483,4.40932 3.09766,6.65626 a 184.04066,168.48793 0 0 0 25.01367,-5.26758 c -0.30333,-9.82552 -1.46555,-10.07156 0.48242,-12.01953 2.19948,-2.19949 2.93219,-1.83191 9.16406,-2.93165 6.23188,-1.09974 7.33298,-2.93325 10.26563,-0.36718 2.93265,2.56606 -5.86644,3.66528 4.03125,4.39844 1.68072,0.12449 3.2032,0.21051 4.88672,0.34179 A 184.04066,168.48793 0 0 0 878.66992,485.625 c -0.46989,-6.35735 -1.47585,-13.36346 -1.07422,-14.56836 0.73316,-2.19949 -0.36576,-2.56526 4.03321,-6.59766 4.39897,-4.03238 5.86409,-5.86476 9.89648,-4.39843 4.0324,1.46632 3.66669,-10e-4 8.79883,5.13086 0.9412,0.9412 1.96151,1.65875 2.99414,2.27734 a 184.04066,168.48793 0 0 0 7.73828,-7.16992 c -0.9657,-3.47085 -1.97046,-7.40076 -2.30078,-10.86914 -0.73317,-7.6982 -6.23309,-4.39898 -0.73438,-10.63086 5.49873,-6.23188 4.03254,-7.33203 9.53125,-7.33203 5.49872,0 5.13228,-0.36672 9.53125,1.09961 1.96301,0.65433 4.09746,0.9888 5.91211,1.18945 a 184.04066,168.48793 0 0 0 2.13282,-3.2168 c -2.19832,-4.04598 -6.21094,-11.64491 -6.21094,-14.46875 0,-3.66581 -1.4672,-5.13227 1.83203,-9.53125 3.29923,-4.39897 1.83366,-7.69888 9.89844,-5.13281 3.00947,0.95756 5.58357,2.10242 7.90429,3.11328 a 184.04066,168.48793 0 0 0 4.28321,-11.93555 c -1.19859,-2.82006 -2.29549,-5.6359 -2.65625,-8.04101 -1.09975,-7.33162 -4.03213,-6.96357 -2.19922,-12.0957 1.8329,-5.13214 -1.83418,-7.33204 5.13086,-7.33204 2.35848,0 4.19163,-0.0939 5.77929,-0.20507 a 184.04066,168.48793 0 0 0 0.46876,-3.92188 l -6.98047,-5.4043 1.09961,-6.96484 v -4.38476 h -4.07227 A 175.48663,177.73423 0 0 1 775.82227,496.13281 175.48663,177.73423 0 0 1 602.35547,344.23438 Z" />
        <path
           id="path35"
           style="opacity:1;fill:url(#linearGradient44);fill-opacity:1;stroke-width:1.25978"
           d="M 608.99972,344.40966 A 167.70142,161.9626 0 0 0 774.77091,482.82905 167.70142,161.9626 0 0 0 940.65408,344.40966 Z" />
        <path
           id="path48"
           style="opacity:0.567308;fill:url(#linearGradient51);fill-opacity:1;stroke-width:1.12897"
           d="m 746.16268,343.33117 a 79.548164,51.160035 0 0 0 -2.00195,10.94752 79.548164,51.160035 0 0 0 79.54688,51.15982 79.548164,51.160035 0 0 0 79.54882,-51.15982 79.548164,51.160035 0 0 0 -1.85547,-10.94752 z" />
        <path
           id="ellipse49"
           style="opacity:0.567308;fill:url(#linearGradient50);fill-opacity:1;stroke-width:0.727981"
           d="m 773.65878,343.33117 a 50.169579,33.727729 0 0 0 -0.57227,4.88418 50.169579,33.727729 0 0 0 50.16992,33.72696 50.169579,33.727729 0 0 0 50.16993,-33.72696 50.169579,33.727729 0 0 0 -0.53907,-4.88418 z" />
        <g
           id="g53"
           transform="translate(56.086955,48.022164)">
          <path
             id="path51"
             style="opacity:1;stroke-width:0.648507"
             d="m 699.19654,405.42982 c 4.01709,7.14809 -1.61909,13.93931 -6.17438,13.93931 -4.55529,1e-5 -10.01854,-6.84044 -8.24809,-14.84655 1.55528,-7.03307 3.95201,-13.8097 8.5073,-13.80969 4.55529,0 2.54541,8.72072 5.91517,14.71693 z"
             sodipodi:nodetypes="sssss" />
          <path
             style="opacity:1;fill:url(#linearGradient53)"
             d="m 691.05972,396.07624 -3.49936,6.3507 c 0,0 -1.94409,3.49936 -1.16646,4.79542 0.77764,1.29607 0,5.18425 1.29606,5.70267 1.29606,0.51843 3.88819,1.55528 3.88819,1.55528 0,0 -0.12961,-2.20331 -0.12961,-3.24015 0,-1.03685 -1.29606,-2.46252 -1.42567,-4.79543 -0.1296,-2.33291 0.25922,-0.90724 0,-3.24015 -0.25921,-2.33291 0.77764,-1.16646 1.16646,-3.36976 0.38882,-2.20331 1.68488,-5.18425 1.68488,-5.18425 z"
             id="path52"
             sodipodi:nodetypes="ccsscsssscc" />
        </g>
        <g
           id="g54"
           transform="rotate(50,682.72057,374.18476)">
          <path
             id="path53"
             style="opacity:1;stroke-width:0.648507"
             d="m 699.19654,405.42982 c 4.01709,7.14809 -1.61909,13.93931 -6.17438,13.93931 -4.55529,1e-5 -10.01854,-6.84044 -8.24809,-14.84655 1.55528,-7.03307 3.95201,-13.8097 8.5073,-13.80969 4.55529,0 2.54541,8.72072 5.91517,14.71693 z"
             sodipodi:nodetypes="sssss" />
          <path
             style="opacity:1;fill:url(#linearGradient54)"
             d="m 691.05972,396.07624 -3.49936,6.3507 c 0,0 -1.94409,3.49936 -1.16646,4.79542 0.77764,1.29607 0,5.18425 1.29606,5.70267 1.29606,0.51843 3.88819,1.55528 3.88819,1.55528 0,0 -0.12961,-2.20331 -0.12961,-3.24015 0,-1.03685 -1.29606,-2.46252 -1.42567,-4.79543 -0.1296,-2.33291 0.25922,-0.90724 0,-3.24015 -0.25921,-2.33291 0.77764,-1.16646 1.16646,-3.36976 0.38882,-2.20331 1.68488,-5.18425 1.68488,-5.18425 z"
             id="path54"
             sodipodi:nodetypes="ccsscsssscc" />
        </g>
        <g
           id="g56"
           transform="rotate(70,709.30609,362.29719)">
          <path
             id="path55"
             style="opacity:1;stroke-width:0.648507"
             d="m 699.19654,405.42982 c 4.01709,7.14809 -1.61909,13.93931 -6.17438,13.93931 -4.55529,1e-5 -10.01854,-6.84044 -8.24809,-14.84655 1.55528,-7.03307 3.95201,-13.8097 8.5073,-13.80969 4.55529,0 2.54541,8.72072 5.91517,14.71693 z"
             sodipodi:nodetypes="sssss" />
          <path
             style="opacity:1;fill:url(#linearGradient56)"
             d="m 691.05972,396.07624 -3.49936,6.3507 c 0,0 -1.94409,3.49936 -1.16646,4.79542 0.77764,1.29607 0,5.18425 1.29606,5.70267 1.29606,0.51843 3.88819,1.55528 3.88819,1.55528 0,0 -0.12961,-2.20331 -0.12961,-3.24015 0,-1.03685 -1.29606,-2.46252 -1.42567,-4.79543 -0.1296,-2.33291 0.25922,-0.90724 0,-3.24015 -0.25921,-2.33291 0.77764,-1.16646 1.16646,-3.36976 0.38882,-2.20331 1.68488,-5.18425 1.68488,-5.18425 z"
             id="path56"
             sodipodi:nodetypes="ccsscsssscc" />
        </g>
        <g
           id="g60"
           transform="rotate(31.840594,665.93078,446.9315)">
          <path
             id="path59"
             style="opacity:1;stroke-width:0.648507"
             d="m 699.19654,405.42982 c 4.01709,7.14809 -1.61909,13.93931 -6.17438,13.93931 -4.55529,1e-5 -10.01854,-6.84044 -8.24809,-14.84655 1.55528,-7.03307 3.95201,-13.8097 8.5073,-13.80969 4.55529,0 2.54541,8.72072 5.91517,14.71693 z"
             sodipodi:nodetypes="sssss" />
          <path
             style="opacity:1;fill:url(#linearGradient58)"
             d="m 691.05972,396.07624 -3.49936,6.3507 c 0,0 -1.94409,3.49936 -1.16646,4.79542 0.77764,1.29607 0,5.18425 1.29606,5.70267 1.29606,0.51843 3.88819,1.55528 3.88819,1.55528 0,0 -0.12961,-2.20331 -0.12961,-3.24015 0,-1.03685 -1.29606,-2.46252 -1.42567,-4.79543 -0.1296,-2.33291 0.25922,-0.90724 0,-3.24015 -0.25921,-2.33291 0.77764,-1.16646 1.16646,-3.36976 0.38882,-2.20331 1.68488,-5.18425 1.68488,-5.18425 z"
             id="path60"
             sodipodi:nodetypes="ccsscsssscc" />
        </g>
        <g
           id="g72"
           transform="rotate(-8.5250354,994.3616,-319.21155)">
          <path
             id="path71"
             style="opacity:1;stroke-width:0.648507"
             d="m 699.19654,405.42982 c 4.01709,7.14809 -1.61909,13.93931 -6.17438,13.93931 -4.55529,1e-5 -10.01854,-6.84044 -8.24809,-14.84655 1.55528,-7.03307 3.95201,-13.8097 8.5073,-13.80969 4.55529,0 2.54541,8.72072 5.91517,14.71693 z"
             sodipodi:nodetypes="sssss" />
          <path
             style="opacity:1;fill:url(#linearGradient72)"
             d="m 691.05972,396.07624 -3.49936,6.3507 c 0,0 -1.94409,3.49936 -1.16646,4.79542 0.77764,1.29607 0,5.18425 1.29606,5.70267 1.29606,0.51843 3.88819,1.55528 3.88819,1.55528 0,0 -0.12961,-2.20331 -0.12961,-3.24015 0,-1.03685 -1.29606,-2.46252 -1.42567,-4.79543 -0.1296,-2.33291 0.25922,-0.90724 0,-3.24015 -0.25921,-2.33291 0.77764,-1.16646 1.16646,-3.36976 0.38882,-2.20331 1.68488,-5.18425 1.68488,-5.18425 z"
             id="path72"
             sodipodi:nodetypes="ccsscsssscc" />
        </g>
        <g
           id="g74"
           transform="rotate(-28.053519,841.89493,110.27962)">
          <path
             id="path73"
             style="opacity:1;stroke-width:0.648507"
             d="m 699.19654,405.42982 c 4.01709,7.14809 -1.61909,13.93931 -6.17438,13.93931 -4.55529,1e-5 -10.01854,-6.84044 -8.24809,-14.84655 1.55528,-7.03307 3.95201,-13.8097 8.5073,-13.80969 4.55529,0 2.54541,8.72072 5.91517,14.71693 z"
             sodipodi:nodetypes="sssss" />
          <path
             style="opacity:1;fill:url(#linearGradient74)"
             d="m 691.05972,396.07624 -3.49936,6.3507 c 0,0 -1.94409,3.49936 -1.16646,4.79542 0.77764,1.29607 0,5.18425 1.29606,5.70267 1.29606,0.51843 3.88819,1.55528 3.88819,1.55528 0,0 -0.12961,-2.20331 -0.12961,-3.24015 0,-1.03685 -1.29606,-2.46252 -1.42567,-4.79543 -0.1296,-2.33291 0.25922,-0.90724 0,-3.24015 -0.25921,-2.33291 0.77764,-1.16646 1.16646,-3.36976 0.38882,-2.20331 1.68488,-5.18425 1.68488,-5.18425 z"
             id="path74"
             sodipodi:nodetypes="ccsscsssscc" />
        </g>
        <g
           id="g76"
           transform="rotate(-52.184597,778.5299,216.33708)">
          <path
             id="path75"
             style="opacity:1;stroke-width:0.648507"
             d="m 699.19654,405.42982 c 4.01709,7.14809 -1.61909,13.93931 -6.17438,13.93931 -4.55529,1e-5 -10.01854,-6.84044 -8.24809,-14.84655 1.55528,-7.03307 3.95201,-13.8097 8.5073,-13.80969 4.55529,0 2.54541,8.72072 5.91517,14.71693 z"
             sodipodi:nodetypes="sssss" />
          <path
             style="opacity:1;fill:url(#linearGradient76)"
             d="m 691.05972,396.07624 -3.49936,6.3507 c 0,0 -1.94409,3.49936 -1.16646,4.79542 0.77764,1.29607 0,5.18425 1.29606,5.70267 1.29606,0.51843 3.88819,1.55528 3.88819,1.55528 0,0 -0.12961,-2.20331 -0.12961,-3.24015 0,-1.03685 -1.29606,-2.46252 -1.42567,-4.79543 -0.1296,-2.33291 0.25922,-0.90724 0,-3.24015 -0.25921,-2.33291 0.77764,-1.16646 1.16646,-3.36976 0.38882,-2.20331 1.68488,-5.18425 1.68488,-5.18425 z"
             id="path76"
             sodipodi:nodetypes="ccsscsssscc" />
        </g>
        <g
           id="g78"
           transform="rotate(-54.796438,769.0011,167.69358)">
          <path
             id="path77"
             style="opacity:1;stroke-width:0.648507"
             d="m 699.19654,405.42982 c 4.01709,7.14809 -1.61909,13.93931 -6.17438,13.93931 -4.55529,1e-5 -10.01854,-6.84044 -8.24809,-14.84655 1.55528,-7.03307 3.95201,-13.8097 8.5073,-13.80969 4.55529,0 2.54541,8.72072 5.91517,14.71693 z"
             sodipodi:nodetypes="sssss" />
          <path
             style="opacity:1;fill:url(#linearGradient78)"
             d="m 691.05972,396.07624 -3.49936,6.3507 c 0,0 -1.94409,3.49936 -1.16646,4.79542 0.77764,1.29607 0,5.18425 1.29606,5.70267 1.29606,0.51843 3.88819,1.55528 3.88819,1.55528 0,0 -0.12961,-2.20331 -0.12961,-3.24015 0,-1.03685 -1.29606,-2.46252 -1.42567,-4.79543 -0.1296,-2.33291 0.25922,-0.90724 0,-3.24015 -0.25921,-2.33291 0.77764,-1.16646 1.16646,-3.36976 0.38882,-2.20331 1.68488,-5.18425 1.68488,-5.18425 z"
             id="path78"
             sodipodi:nodetypes="ccsscsssscc" />
        </g>
        <g
           id="g80"
           transform="rotate(27.927183,732.06612,544.579)">
          <path
             id="path79"
             style="opacity:1;stroke-width:0.648507"
             d="m 699.19654,405.42982 c 4.01709,7.14809 -1.61909,13.93931 -6.17438,13.93931 -4.55529,1e-5 -10.01854,-6.84044 -8.24809,-14.84655 1.55528,-7.03307 3.95201,-13.8097 8.5073,-13.80969 4.55529,0 2.54541,8.72072 5.91517,14.71693 z"
             sodipodi:nodetypes="sssss" />
          <path
             style="opacity:1;fill:url(#linearGradient80)"
             d="m 691.05972,396.07624 -3.49936,6.3507 c 0,0 -1.94409,3.49936 -1.16646,4.79542 0.77764,1.29607 0,5.18425 1.29606,5.70267 1.29606,0.51843 3.88819,1.55528 3.88819,1.55528 0,0 -0.12961,-2.20331 -0.12961,-3.24015 0,-1.03685 -1.29606,-2.46252 -1.42567,-4.79543 -0.1296,-2.33291 0.25922,-0.90724 0,-3.24015 -0.25921,-2.33291 0.77764,-1.16646 1.16646,-3.36976 0.38882,-2.20331 1.68488,-5.18425 1.68488,-5.18425 z"
             id="path80"
             sodipodi:nodetypes="ccsscsssscc" />
        </g>
        <g
           id="g82"
           transform="rotate(51.917797,742.2426,419.388)">
          <path
             id="path81"
             style="opacity:1;stroke-width:0.648507"
             d="m 699.19654,405.42982 c 4.01709,7.14809 -1.61909,13.93931 -6.17438,13.93931 -4.55529,1e-5 -10.01854,-6.84044 -8.24809,-14.84655 1.55528,-7.03307 3.95201,-13.8097 8.5073,-13.80969 4.55529,0 2.54541,8.72072 5.91517,14.71693 z"
             sodipodi:nodetypes="sssss" />
          <path
             style="opacity:1;fill:url(#linearGradient82)"
             d="m 691.05972,396.07624 -3.49936,6.3507 c 0,0 -1.94409,3.49936 -1.16646,4.79542 0.77764,1.29607 0,5.18425 1.29606,5.70267 1.29606,0.51843 3.88819,1.55528 3.88819,1.55528 0,0 -0.12961,-2.20331 -0.12961,-3.24015 0,-1.03685 -1.29606,-2.46252 -1.42567,-4.79543 -0.1296,-2.33291 0.25922,-0.90724 0,-3.24015 -0.25921,-2.33291 0.77764,-1.16646 1.16646,-3.36976 0.38882,-2.20331 1.68488,-5.18425 1.68488,-5.18425 z"
             id="path82"
             sodipodi:nodetypes="ccsscsssscc" />
        </g>
        <g
           id="g84"
           transform="rotate(-9.2083926,673.02888,-368.60009)">
          <path
             id="path83"
             style="opacity:1;stroke-width:0.648507"
             d="m 699.19654,405.42982 c 4.01709,7.14809 -1.61909,13.93931 -6.17438,13.93931 -4.55529,1e-5 -10.01854,-6.84044 -8.24809,-14.84655 1.55528,-7.03307 3.95201,-13.8097 8.5073,-13.80969 4.55529,0 2.54541,8.72072 5.91517,14.71693 z"
             sodipodi:nodetypes="sssss" />
          <path
             style="opacity:1;fill:url(#linearGradient84)"
             d="m 691.05972,396.07624 -3.49936,6.3507 c 0,0 -1.94409,3.49936 -1.16646,4.79542 0.77764,1.29607 0,5.18425 1.29606,5.70267 1.29606,0.51843 3.88819,1.55528 3.88819,1.55528 0,0 -0.12961,-2.20331 -0.12961,-3.24015 0,-1.03685 -1.29606,-2.46252 -1.42567,-4.79543 -0.1296,-2.33291 0.25922,-0.90724 0,-3.24015 -0.25921,-2.33291 0.77764,-1.16646 1.16646,-3.36976 0.38882,-2.20331 1.68488,-5.18425 1.68488,-5.18425 z"
             id="path84"
             sodipodi:nodetypes="ccsscsssscc" />
        </g>
        <g
           id="g86"
           transform="rotate(33.86412,797.97132,530.20094)">
          <path
             id="path85"
             style="opacity:1;stroke-width:0.648507"
             d="m 699.19654,405.42982 c 4.01709,7.14809 -1.61909,13.93931 -6.17438,13.93931 -4.55529,1e-5 -10.01854,-6.84044 -8.24809,-14.84655 1.55528,-7.03307 3.95201,-13.8097 8.5073,-13.80969 4.55529,0 2.54541,8.72072 5.91517,14.71693 z"
             sodipodi:nodetypes="sssss" />
          <path
             style="opacity:1;fill:url(#linearGradient86)"
             d="m 691.05972,396.07624 -3.49936,6.3507 c 0,0 -1.94409,3.49936 -1.16646,4.79542 0.77764,1.29607 0,5.18425 1.29606,5.70267 1.29606,0.51843 3.88819,1.55528 3.88819,1.55528 0,0 -0.12961,-2.20331 -0.12961,-3.24015 0,-1.03685 -1.29606,-2.46252 -1.42567,-4.79543 -0.1296,-2.33291 0.25922,-0.90724 0,-3.24015 -0.25921,-2.33291 0.77764,-1.16646 1.16646,-3.36976 0.38882,-2.20331 1.68488,-5.18425 1.68488,-5.18425 z"
             id="path86"
             sodipodi:nodetypes="ccsscsssscc" />
        </g>
      </g>
    </g>
  </g>
</svg>
